<svg id="svg" version="1.1" xmlns="http://www.w3.org/2000/svg" xmlns:xlink="http://www.w3.org/1999/xlink" width="400" height="400" viewBox="0, 0, 400,400"><g id="svgg"><path id="path0" d="M197.700 53.091 C 198.525 53.178,199.875 53.178,200.700 53.091 C 201.525 53.005,200.850 52.934,199.200 52.934 C 197.550 52.934,196.875 53.005,197.700 53.091 M189.500 53.482 C 189.995 53.578,190.805 53.578,191.300 53.482 C 191.795 53.387,191.390 53.309,190.400 53.309 C 189.410 53.309,189.005 53.387,189.500 53.482 M207.305 53.487 C 207.914 53.579,208.814 53.577,209.305 53.482 C 209.797 53.387,209.300 53.311,208.200 53.314 C 207.100 53.317,206.697 53.395,207.305 53.487 M244.800 60.333 C 245.130 60.536,245.850 60.824,246.400 60.971 C 247.095 61.157,247.217 61.125,246.800 60.867 C 246.470 60.664,245.750 60.376,245.200 60.229 C 244.505 60.043,244.383 60.075,244.800 60.333 M248.400 61.533 C 248.730 61.736,249.450 62.024,250.000 62.171 C 250.695 62.357,250.817 62.325,250.400 62.067 C 250.070 61.864,249.350 61.576,248.800 61.429 C 248.105 61.243,247.983 61.275,248.400 61.533 M258.000 65.400 C 258.550 65.714,259.180 65.972,259.400 65.972 C 259.620 65.972,259.350 65.714,258.800 65.400 C 258.250 65.086,257.620 64.828,257.400 64.828 C 257.180 64.828,257.450 65.086,258.000 65.400 M262.433 67.352 C 262.841 67.724,266.800 69.593,266.800 69.413 C 266.800 69.188,262.980 67.200,262.547 67.200 C 262.393 67.200,262.342 67.268,262.433 67.352 M270.000 71.193 C 270.330 71.431,272.627 72.835,275.105 74.313 C 296.188 86.888,317.379 108.700,327.643 128.393 C 328.114 129.296,328.587 129.946,328.695 129.838 C 329.183 129.350,321.741 117.569,317.048 111.400 C 306.822 97.958,294.540 86.524,280.193 77.092 C 276.009 74.341,267.701 69.533,270.000 71.193 M187.349 76.836 C 120.245 82.826,69.174 144.113,75.383 211.200 C 81.962 282.286,146.513 333.587,216.600 323.431 C 249.160 318.712,278.825 301.131,298.431 274.931 C 301.122 271.336,302.306 269.362,301.965 269.041 C 301.874 268.956,299.640 267.603,297.000 266.035 C 294.360 264.467,291.930 263.007,291.600 262.790 C 291.270 262.573,290.730 262.273,290.400 262.124 C 290.070 261.975,285.775 259.456,280.855 256.526 C 275.935 253.597,271.848 251.200,271.773 251.200 C 271.698 251.200,266.657 248.230,260.570 244.600 C 254.483 240.970,249.438 238.000,249.357 238.000 C 249.277 238.000,244.688 235.300,239.160 232.000 C 233.633 228.700,229.043 226.000,228.960 226.000 C 228.878 226.000,224.288 223.300,218.760 220.000 C 213.233 216.700,208.635 214.000,208.542 214.000 C 208.450 214.000,204.195 211.512,199.087 208.470 C 193.979 205.429,188.911 202.432,187.825 201.810 L 185.851 200.679 186.825 199.903 C 187.361 199.477,192.570 196.331,198.400 192.912 C 204.230 189.493,214.272 183.569,220.715 179.748 C 227.158 175.927,232.520 172.800,232.631 172.800 C 232.742 172.800,233.320 172.460,233.916 172.044 C 234.512 171.628,240.310 168.176,246.800 164.374 C 253.290 160.571,263.820 154.368,270.200 150.590 C 276.580 146.811,286.345 141.042,291.900 137.769 C 297.455 134.496,302.000 131.642,302.000 131.427 C 302.000 129.923,293.285 119.246,286.619 112.584 C 260.477 86.458,224.539 73.516,187.349 76.836 M94.591 96.500 L 91.400 99.800 94.700 96.609 C 97.765 93.646,98.182 93.200,97.891 93.200 C 97.830 93.200,96.345 94.685,94.591 96.500 M88.575 102.900 L 87.400 104.200 88.700 103.025 C 89.912 101.930,90.184 101.600,89.875 101.600 C 89.806 101.600,89.221 102.185,88.575 102.900 M52.093 188.800 C 52.093 189.570,52.175 189.885,52.276 189.500 C 52.376 189.115,52.376 188.485,52.276 188.100 C 52.175 187.715,52.093 188.030,52.093 188.800 M51.709 194.400 C 51.709 195.390,51.787 195.795,51.882 195.300 C 51.978 194.805,51.978 193.995,51.882 193.500 C 51.787 193.005,51.709 193.410,51.709 194.400 M51.714 206.600 C 51.717 207.700,51.795 208.103,51.887 207.495 C 51.979 206.886,51.977 205.986,51.882 205.495 C 51.787 205.003,51.711 205.500,51.714 206.600 M52.093 212.400 C 52.093 213.170,52.175 213.485,52.276 213.100 C 52.376 212.715,52.376 212.085,52.276 211.700 C 52.175 211.315,52.093 211.630,52.093 212.400 M328.832 270.223 C 328.776 270.964,322.504 281.159,319.523 285.354 C 310.174 298.510,297.044 311.690,284.432 320.577 C 281.666 322.527,280.091 323.897,281.700 322.954 C 290.726 317.667,307.304 302.180,315.908 291.000 C 321.722 283.444,329.457 271.268,329.062 270.292 C 328.953 270.022,328.849 269.990,328.832 270.223 M95.000 304.800 C 97.192 307.000,99.075 308.800,99.185 308.800 C 99.295 308.800,97.592 307.000,95.400 304.800 C 93.208 302.600,91.325 300.800,91.215 300.800 C 91.105 300.800,92.808 302.600,95.000 304.800 M275.400 326.409 C 268.943 330.341,268.247 330.835,271.772 328.988 C 275.649 326.957,281.806 322.980,280.700 323.222 C 280.645 323.234,278.260 324.668,275.400 326.409 M267.424 331.013 C 266.996 331.336,266.827 331.600,267.047 331.600 C 267.267 331.600,267.796 331.336,268.224 331.013 C 268.651 330.690,268.820 330.425,268.600 330.425 C 268.380 330.425,267.851 330.690,267.424 331.013 M265.024 332.213 C 264.596 332.536,264.427 332.800,264.647 332.800 C 264.867 332.800,265.396 332.536,265.824 332.213 C 266.251 331.890,266.420 331.625,266.200 331.625 C 265.980 331.625,265.451 331.890,265.024 332.213 M262.624 333.413 C 262.196 333.736,262.027 334.000,262.247 334.000 C 262.467 334.000,262.996 333.736,263.424 333.413 C 263.851 333.090,264.020 332.825,263.800 332.825 C 263.580 332.825,263.051 333.090,262.624 333.413 M260.000 334.600 C 259.450 334.914,259.180 335.172,259.400 335.172 C 259.620 335.172,260.250 334.914,260.800 334.600 C 261.350 334.286,261.620 334.028,261.400 334.028 C 261.180 334.028,260.550 334.286,260.000 334.600 M257.400 335.814 C 256.395 336.298,256.363 336.353,257.200 336.151 C 257.750 336.019,258.371 335.750,258.580 335.555 C 259.098 335.071,258.814 335.133,257.400 335.814 M254.400 337.000 C 253.850 337.314,253.580 337.572,253.800 337.572 C 254.020 337.572,254.650 337.314,255.200 337.000 C 255.750 336.686,256.020 336.428,255.800 336.428 C 255.580 336.428,254.950 336.686,254.400 337.000 M251.400 338.214 C 250.400 338.696,250.366 338.751,251.200 338.548 C 252.333 338.271,253.607 337.621,253.000 337.630 C 252.780 337.633,252.060 337.896,251.400 338.214 M248.200 339.414 C 247.200 339.896,247.166 339.951,248.000 339.748 C 249.133 339.471,250.407 338.821,249.800 338.830 C 249.580 338.833,248.860 339.096,248.200 339.414 M244.600 340.614 C 243.600 341.096,243.566 341.151,244.400 340.948 C 245.533 340.671,246.807 340.021,246.200 340.030 C 245.980 340.033,245.260 340.296,244.600 340.614 M237.000 342.800 C 236.496 343.017,236.422 343.144,236.800 343.144 C 237.130 343.144,237.760 342.989,238.200 342.800 C 238.704 342.583,238.778 342.456,238.400 342.456 C 238.070 342.456,237.440 342.611,237.000 342.800 M232.000 344.000 C 231.196 344.257,231.157 344.323,231.800 344.332 C 232.240 344.338,232.960 344.189,233.400 344.000 C 234.419 343.562,233.368 343.562,232.000 344.000 M217.700 346.676 C 218.085 346.776,218.715 346.776,219.100 346.676 C 219.485 346.575,219.170 346.493,218.400 346.493 C 217.630 346.493,217.315 346.575,217.700 346.676 M188.500 347.476 C 188.885 347.576,189.515 347.576,189.900 347.476 C 190.285 347.375,189.970 347.293,189.200 347.293 C 188.430 347.293,188.115 347.375,188.500 347.476 M208.900 347.476 C 209.285 347.576,209.915 347.576,210.300 347.476 C 210.685 347.375,210.370 347.293,209.600 347.293 C 208.830 347.293,208.515 347.375,208.900 347.476 M196.482 347.896 C 197.958 347.973,200.478 347.973,202.082 347.897 C 203.687 347.821,202.480 347.758,199.400 347.758 C 196.320 347.757,195.007 347.819,196.482 347.896 " stroke="none" fill="#fbb334" fill-rule="evenodd"></path><path id="path1" d="M186.200 53.816 C 152.943 56.606,121.366 70.967,97.151 94.312 C 33.222 155.948,37.669 259.836,106.600 315.035 C 112.154 319.483,115.890 322.086,124.000 327.157 C 157.729 348.249,205.847 353.498,245.216 340.380 C 275.513 330.285,301.656 310.825,319.880 284.800 C 326.386 275.509,334.088 261.480,333.149 260.629 C 332.847 260.355,327.740 257.278,321.800 253.789 C 315.860 250.301,306.680 244.904,301.400 241.795 C 296.120 238.686,286.490 233.019,280.000 229.201 C 273.510 225.383,264.330 219.979,259.600 217.192 C 254.870 214.405,246.625 209.548,241.277 206.399 C 233.301 201.702,231.649 200.581,232.077 200.156 C 232.548 199.689,252.391 187.787,256.800 185.327 C 257.790 184.775,263.550 181.391,269.600 177.807 C 275.650 174.224,285.480 168.402,291.444 164.869 C 297.408 161.337,303.168 157.956,304.244 157.357 C 305.320 156.757,310.340 153.805,315.400 150.796 C 320.460 147.787,326.534 144.200,328.899 142.826 C 334.215 139.736,333.991 140.231,331.866 136.299 C 330.886 134.485,329.352 131.610,328.458 129.911 C 301.900 79.454,244.781 48.900,186.200 53.816 M210.000 76.805 C 238.975 79.311,265.914 91.891,286.619 112.584 C 293.285 119.246,302.000 129.923,302.000 131.427 C 302.000 131.642,297.455 134.496,291.900 137.769 C 286.345 141.042,276.580 146.811,270.200 150.590 C 263.820 154.368,253.290 160.571,246.800 164.374 C 240.310 168.176,234.512 171.628,233.916 172.044 C 233.320 172.460,232.742 172.800,232.631 172.800 C 232.520 172.800,227.158 175.927,220.715 179.748 C 214.272 183.569,204.230 189.493,198.400 192.912 C 192.570 196.331,187.361 199.477,186.825 199.903 L 185.851 200.679 187.825 201.810 C 188.911 202.432,193.979 205.429,199.087 208.470 C 204.195 211.512,208.450 214.000,208.542 214.000 C 208.635 214.000,213.233 216.700,218.760 220.000 C 224.288 223.300,228.878 226.000,228.960 226.000 C 229.043 226.000,233.633 228.700,239.160 232.000 C 244.688 235.300,249.277 238.000,249.357 238.000 C 249.438 238.000,254.483 240.970,260.570 244.600 C 266.657 248.230,271.698 251.200,271.773 251.200 C 271.848 251.200,275.935 253.597,280.855 256.526 C 285.775 259.456,290.070 261.975,290.400 262.124 C 290.730 262.273,291.270 262.573,291.600 262.790 C 291.930 263.007,294.360 264.467,297.000 266.035 C 299.640 267.603,301.874 268.956,301.965 269.041 C 302.938 269.958,293.409 281.827,285.570 289.462 C 268.247 306.334,248.053 316.952,223.000 322.361 C 163.232 335.266,100.188 298.028,80.853 238.400 C 53.631 154.447,121.781 69.173,210.000 76.805 " stroke="none" fill="#fbfbfa" fill-rule="evenodd"></path><path id="path2" d="M185.600 8.341 C 185.600 8.528,182.859 8.809,179.509 8.965 C 176.158 9.121,173.323 9.395,173.209 9.573 C 173.094 9.751,171.245 10.027,169.100 10.186 C 166.955 10.345,165.200 10.623,165.200 10.803 C 165.200 10.984,163.850 11.258,162.200 11.413 C 160.550 11.567,159.200 11.832,159.200 12.000 C 159.200 12.169,158.030 12.432,156.600 12.585 C 155.170 12.738,154.000 13.004,154.000 13.176 C 154.000 13.348,152.982 13.593,151.737 13.722 C 150.493 13.850,149.368 14.127,149.237 14.337 C 149.107 14.547,147.965 14.848,146.700 15.005 C 145.435 15.163,144.400 15.431,144.400 15.601 C 144.400 15.770,143.590 16.031,142.600 16.179 C 141.610 16.328,140.800 16.598,140.800 16.779 C 140.800 16.961,139.990 17.231,139.000 17.379 C 138.010 17.528,137.200 17.798,137.200 17.979 C 137.200 18.161,136.390 18.431,135.400 18.579 C 134.410 18.728,133.600 18.998,133.600 19.179 C 133.600 19.361,132.790 19.631,131.800 19.779 C 130.810 19.928,130.000 20.204,130.000 20.393 C 130.000 20.582,129.448 20.858,128.773 21.006 C 128.098 21.154,127.063 21.527,126.473 21.835 C 125.883 22.143,125.085 22.396,124.700 22.398 C 124.315 22.399,124.000 22.566,124.000 22.768 C 124.000 22.971,123.460 23.255,122.800 23.400 C 122.140 23.545,121.600 23.806,121.600 23.981 C 121.600 24.155,120.880 24.413,120.000 24.554 C 119.120 24.694,118.400 24.973,118.400 25.173 C 118.400 25.373,117.860 25.655,117.200 25.800 C 116.540 25.945,116.000 26.215,116.000 26.400 C 116.000 26.585,115.460 26.855,114.800 27.000 C 114.140 27.145,113.600 27.415,113.600 27.600 C 113.600 27.785,113.060 28.055,112.400 28.200 C 111.740 28.345,111.200 28.615,111.200 28.800 C 111.200 28.985,110.660 29.255,110.000 29.400 C 109.340 29.545,108.800 29.815,108.800 30.000 C 108.800 30.185,108.260 30.455,107.600 30.600 C 106.940 30.745,106.400 30.990,106.400 31.144 C 106.400 31.298,105.905 31.638,105.300 31.898 C 104.119 32.406,102.725 33.246,102.400 33.646 C 102.290 33.781,101.795 34.019,101.300 34.173 C 100.805 34.328,100.400 34.607,100.400 34.795 C 100.400 34.983,99.875 35.252,99.233 35.393 C 98.592 35.534,97.967 35.908,97.846 36.224 C 97.724 36.541,97.349 36.800,97.013 36.800 C 96.676 36.800,96.400 36.960,96.400 37.157 C 96.400 37.353,95.950 37.626,95.400 37.764 C 94.850 37.902,94.400 38.192,94.400 38.408 C 94.400 38.623,94.124 38.800,93.787 38.800 C 93.451 38.800,93.078 39.054,92.959 39.364 C 92.839 39.674,92.305 40.037,91.771 40.172 C 91.237 40.306,90.800 40.592,90.800 40.808 C 90.800 41.023,90.524 41.200,90.187 41.200 C 89.851 41.200,89.471 41.470,89.345 41.800 C 89.218 42.130,88.862 42.400,88.553 42.400 C 88.245 42.400,87.684 42.760,87.307 43.200 C 86.930 43.640,86.392 44.000,86.111 44.000 C 85.830 44.000,85.595 44.135,85.589 44.300 C 85.583 44.465,84.863 45.041,83.989 45.580 C 83.115 46.120,82.400 46.705,82.400 46.880 C 82.400 47.056,82.167 47.200,81.881 47.200 C 81.596 47.200,80.921 47.732,80.381 48.383 C 79.842 49.034,79.189 49.574,78.931 49.583 C 78.673 49.592,77.922 50.140,77.262 50.800 C 76.602 51.460,75.931 52.000,75.771 52.000 C 75.611 52.000,74.869 52.630,74.121 53.400 C 73.373 54.170,72.615 54.800,72.436 54.800 C 72.257 54.800,70.751 56.150,69.091 57.800 C 67.430 59.450,65.954 60.800,65.810 60.800 C 65.456 60.800,59.200 67.033,59.200 67.385 C 59.200 67.539,57.850 69.015,56.200 70.665 C 54.550 72.315,53.200 73.833,53.200 74.039 C 53.200 74.245,52.390 75.190,51.400 76.138 C 50.410 77.087,49.600 77.998,49.600 78.162 C 49.600 78.327,49.060 79.002,48.400 79.662 C 47.740 80.322,47.192 81.073,47.183 81.331 C 47.174 81.589,46.634 82.242,45.983 82.781 C 45.332 83.321,44.800 83.996,44.800 84.281 C 44.800 84.567,44.656 84.800,44.480 84.800 C 44.305 84.800,43.720 85.515,43.180 86.389 C 42.641 87.263,42.065 87.983,41.900 87.989 C 41.735 87.995,41.600 88.230,41.600 88.511 C 41.600 88.792,41.240 89.330,40.800 89.707 C 40.360 90.084,40.000 90.645,40.000 90.953 C 40.000 91.262,39.730 91.618,39.400 91.745 C 39.070 91.871,38.800 92.251,38.800 92.587 C 38.800 92.924,38.623 93.200,38.408 93.200 C 38.192 93.200,37.906 93.637,37.772 94.171 C 37.637 94.705,37.274 95.239,36.964 95.359 C 36.654 95.478,36.400 95.851,36.400 96.187 C 36.400 96.524,36.220 96.800,36.000 96.800 C 35.780 96.800,35.600 97.057,35.600 97.371 C 35.600 97.686,35.375 98.188,35.100 98.488 C 34.463 99.183,33.729 100.327,33.102 101.600 C 32.831 102.150,32.382 102.838,32.105 103.129 C 31.827 103.419,31.600 103.914,31.600 104.229 C 31.600 104.543,31.434 104.800,31.232 104.800 C 31.029 104.800,30.745 105.340,30.600 106.000 C 30.455 106.660,30.183 107.200,29.996 107.200 C 29.809 107.200,29.239 108.055,28.728 109.100 C 28.218 110.145,27.680 111.092,27.532 111.204 C 27.384 111.316,27.140 111.901,26.988 112.504 C 26.837 113.107,26.567 113.600,26.388 113.600 C 26.210 113.600,25.945 114.140,25.800 114.800 C 25.655 115.460,25.385 116.000,25.200 116.000 C 25.015 116.000,24.745 116.540,24.600 117.200 C 24.455 117.860,24.171 118.400,23.968 118.400 C 23.766 118.400,23.599 118.625,23.598 118.900 C 23.596 119.175,23.343 119.883,23.035 120.473 C 22.727 121.063,22.354 122.098,22.206 122.773 C 22.058 123.448,21.779 124.000,21.586 124.000 C 21.394 124.000,21.118 124.630,20.974 125.400 C 20.829 126.170,20.553 126.800,20.360 126.800 C 20.167 126.800,19.894 127.520,19.754 128.400 C 19.613 129.280,19.349 130.000,19.167 130.000 C 18.985 130.000,18.718 130.630,18.574 131.400 C 18.429 132.170,18.153 132.800,17.960 132.800 C 17.767 132.800,17.494 133.520,17.354 134.400 C 17.213 135.280,16.952 136.000,16.773 136.000 C 16.595 136.000,16.328 136.810,16.179 137.800 C 16.031 138.790,15.761 139.600,15.579 139.600 C 15.398 139.600,15.128 140.410,14.979 141.400 C 14.831 142.390,14.573 143.200,14.406 143.200 C 14.239 143.200,13.984 144.100,13.838 145.200 C 13.692 146.300,13.412 147.200,13.215 147.200 C 13.018 147.200,12.734 148.190,12.583 149.400 C 12.432 150.610,12.166 151.600,11.993 151.600 C 11.820 151.600,11.553 152.680,11.400 154.000 C 11.247 155.320,10.980 156.400,10.807 156.400 C 10.635 156.400,10.368 157.568,10.215 158.996 C 10.062 160.423,9.790 161.682,9.610 161.794 C 9.431 161.905,9.156 163.437,9.000 165.198 C 8.844 166.959,8.575 168.400,8.402 168.400 C 8.228 168.400,7.955 170.245,7.795 172.500 C 7.636 174.755,7.351 176.697,7.164 176.816 C 6.977 176.935,6.701 180.040,6.550 183.716 C 6.399 187.392,6.124 190.400,5.938 190.400 C 5.752 190.400,5.600 195.260,5.600 201.200 C 5.600 207.140,5.754 212.000,5.943 212.000 C 6.131 212.000,6.415 215.013,6.574 218.696 C 6.733 222.379,7.006 225.484,7.180 225.596 C 7.355 225.708,7.627 227.555,7.786 229.700 C 7.945 231.845,8.215 233.600,8.386 233.600 C 8.557 233.600,8.822 235.040,8.976 236.800 C 9.129 238.560,9.399 240.000,9.576 240.000 C 9.752 240.000,10.021 241.260,10.173 242.800 C 10.324 244.340,10.600 245.600,10.785 245.600 C 10.970 245.600,11.247 246.680,11.400 248.000 C 11.553 249.320,11.820 250.400,11.993 250.400 C 12.166 250.400,12.431 251.387,12.582 252.594 C 12.733 253.800,13.013 254.884,13.205 255.003 C 13.397 255.122,13.675 256.024,13.822 257.009 C 13.970 257.994,14.239 258.800,14.421 258.800 C 14.602 258.800,14.872 259.610,15.021 260.600 C 15.169 261.590,15.439 262.400,15.621 262.400 C 15.802 262.400,16.072 263.210,16.221 264.200 C 16.369 265.190,16.630 266.000,16.801 266.000 C 16.971 266.000,17.228 266.622,17.370 267.383 C 17.513 268.144,17.892 269.269,18.212 269.883 C 18.533 270.497,18.796 271.315,18.798 271.700 C 18.799 272.085,18.978 272.400,19.195 272.400 C 19.413 272.400,19.706 273.120,19.846 274.000 C 19.987 274.880,20.251 275.600,20.433 275.600 C 20.615 275.600,20.882 276.230,21.026 277.000 C 21.171 277.770,21.435 278.400,21.613 278.400 C 21.791 278.400,22.055 278.940,22.200 279.600 C 22.345 280.260,22.615 280.800,22.800 280.800 C 22.985 280.800,23.255 281.340,23.400 282.000 C 23.545 282.660,23.815 283.200,24.000 283.200 C 24.185 283.200,24.460 283.764,24.612 284.453 C 24.763 285.142,25.313 286.447,25.835 287.353 C 26.357 288.259,26.898 289.315,27.038 289.700 C 27.179 290.085,27.438 290.400,27.615 290.400 C 27.792 290.400,28.055 290.940,28.200 291.600 C 28.345 292.260,28.615 292.800,28.800 292.800 C 28.985 292.800,29.255 293.340,29.400 294.000 C 29.545 294.660,29.810 295.200,29.988 295.200 C 30.167 295.200,30.426 295.650,30.564 296.200 C 30.702 296.750,30.978 297.200,31.176 297.200 C 31.374 297.200,31.652 297.725,31.793 298.367 C 31.934 299.008,32.308 299.633,32.624 299.754 C 32.941 299.876,33.200 300.251,33.200 300.587 C 33.200 300.924,33.380 301.200,33.600 301.200 C 33.820 301.200,34.000 301.457,34.000 301.771 C 34.000 302.086,34.227 302.581,34.505 302.871 C 34.782 303.162,35.231 303.850,35.502 304.400 C 36.039 305.491,36.884 306.884,37.200 307.200 C 37.675 307.675,39.200 309.992,39.200 310.238 C 39.200 310.387,39.629 310.906,40.153 311.392 C 40.677 311.878,41.230 312.663,41.380 313.138 C 41.531 313.612,41.822 314.000,42.027 314.000 C 42.232 314.000,42.400 314.261,42.400 314.580 C 42.400 314.899,42.627 315.304,42.904 315.480 C 43.181 315.656,43.856 316.474,44.404 317.297 C 44.952 318.121,45.535 318.796,45.700 318.797 C 45.865 318.799,46.000 319.033,46.000 319.319 C 46.000 319.604,46.532 320.279,47.183 320.819 C 47.834 321.358,48.374 322.016,48.383 322.281 C 48.392 322.545,49.030 323.373,49.800 324.121 C 50.570 324.869,51.200 325.617,51.200 325.784 C 51.200 325.950,52.190 327.061,53.400 328.252 C 54.610 329.443,55.600 330.573,55.600 330.764 C 55.600 331.217,68.783 344.400,69.236 344.400 C 69.427 344.400,70.557 345.390,71.748 346.600 C 72.939 347.810,74.050 348.800,74.216 348.800 C 74.383 348.800,75.131 349.430,75.879 350.200 C 76.627 350.970,77.418 351.600,77.638 351.600 C 77.858 351.600,78.455 352.050,78.965 352.600 C 79.475 353.150,80.051 353.605,80.246 353.611 C 80.441 353.617,81.121 354.153,81.758 354.803 C 82.395 355.452,83.250 356.089,83.658 356.218 C 84.066 356.348,84.400 356.622,84.400 356.827 C 84.400 357.032,84.630 357.200,84.911 357.200 C 85.192 357.200,85.730 357.560,86.107 358.000 C 86.484 358.440,87.045 358.800,87.353 358.800 C 87.662 358.800,88.018 359.070,88.145 359.400 C 88.271 359.730,88.651 360.000,88.987 360.000 C 89.324 360.000,89.600 360.177,89.600 360.392 C 89.600 360.608,90.037 360.894,90.571 361.028 C 91.105 361.163,91.639 361.526,91.759 361.836 C 91.878 362.146,92.251 362.400,92.587 362.400 C 92.924 362.400,93.200 362.577,93.200 362.792 C 93.200 363.008,93.637 363.294,94.171 363.428 C 94.705 363.563,95.239 363.926,95.359 364.236 C 95.478 364.546,95.851 364.800,96.187 364.800 C 96.524 364.800,96.800 364.968,96.800 365.173 C 96.800 365.378,97.205 365.672,97.700 365.827 C 98.195 365.981,98.690 366.219,98.800 366.354 C 99.125 366.754,100.519 367.594,101.700 368.102 C 102.305 368.362,102.800 368.696,102.800 368.844 C 102.800 368.992,103.250 369.226,103.800 369.364 C 104.350 369.502,104.800 369.778,104.800 369.976 C 104.800 370.174,105.340 370.455,106.000 370.600 C 106.660 370.745,107.200 371.015,107.200 371.200 C 107.200 371.385,107.740 371.655,108.400 371.800 C 109.060 371.945,109.600 372.215,109.600 372.400 C 109.600 372.585,110.140 372.855,110.800 373.000 C 111.460 373.145,112.000 373.415,112.000 373.600 C 112.000 373.785,112.540 374.055,113.200 374.200 C 113.860 374.345,114.400 374.615,114.400 374.800 C 114.400 374.985,114.940 375.255,115.600 375.400 C 116.260 375.545,116.800 375.815,116.800 376.000 C 116.800 376.185,117.340 376.455,118.000 376.600 C 118.660 376.745,119.200 377.009,119.200 377.187 C 119.200 377.365,119.830 377.629,120.600 377.774 C 121.370 377.918,122.000 378.206,122.000 378.413 C 122.000 378.621,122.720 378.906,123.600 379.046 C 124.480 379.187,125.200 379.451,125.200 379.633 C 125.200 379.815,125.830 380.082,126.600 380.226 C 127.370 380.371,128.000 380.647,128.000 380.840 C 128.000 381.033,128.720 381.306,129.600 381.446 C 130.480 381.587,131.200 381.859,131.200 382.051 C 131.200 382.243,131.515 382.401,131.900 382.402 C 132.285 382.404,133.103 382.667,133.717 382.988 C 134.331 383.308,135.456 383.687,136.217 383.830 C 136.978 383.972,137.600 384.229,137.600 384.399 C 137.600 384.570,138.406 384.830,139.391 384.978 C 140.376 385.125,141.276 385.399,141.391 385.586 C 141.506 385.772,142.501 386.049,143.600 386.200 C 144.700 386.351,145.600 386.621,145.600 386.798 C 145.600 386.976,146.680 387.247,148.000 387.400 C 149.320 387.553,150.400 387.823,150.400 388.000 C 150.400 388.177,151.480 388.447,152.800 388.600 C 154.120 388.753,155.200 389.027,155.200 389.207 C 155.200 389.388,156.370 389.662,157.800 389.815 C 159.230 389.968,160.400 390.236,160.400 390.411 C 160.400 390.585,161.930 390.856,163.800 391.011 C 165.670 391.167,167.200 391.436,167.200 391.609 C 167.200 391.782,169.135 392.053,171.500 392.213 C 173.865 392.372,175.899 392.656,176.019 392.844 C 176.140 393.032,179.875 393.308,184.319 393.456 C 188.764 393.605,192.400 393.878,192.400 394.063 C 192.400 394.248,195.190 394.400,198.600 394.400 C 202.010 394.400,204.800 394.249,204.800 394.063 C 204.800 393.878,208.525 393.607,213.079 393.460 C 217.632 393.313,221.457 393.037,221.579 392.847 C 221.700 392.657,223.735 392.372,226.100 392.213 C 228.465 392.053,230.400 391.779,230.400 391.603 C 230.400 391.427,231.841 391.156,233.602 391.000 C 235.363 390.844,236.891 390.576,236.997 390.405 C 237.102 390.234,238.361 389.969,239.794 389.815 C 241.227 389.662,242.400 389.388,242.400 389.207 C 242.400 389.027,243.480 388.753,244.800 388.600 C 246.120 388.447,247.200 388.177,247.200 388.000 C 247.200 387.823,248.280 387.553,249.600 387.400 C 250.920 387.247,252.000 386.980,252.000 386.806 C 252.000 386.633,252.810 386.369,253.800 386.221 C 254.790 386.072,255.600 385.805,255.600 385.627 C 255.600 385.449,256.493 385.185,257.584 385.040 C 258.675 384.895,259.663 384.622,259.779 384.434 C 259.896 384.245,260.616 383.974,261.379 383.830 C 262.142 383.687,263.269 383.308,263.883 382.988 C 264.497 382.667,265.315 382.404,265.700 382.402 C 266.085 382.401,266.400 382.243,266.400 382.051 C 266.400 381.859,267.120 381.587,268.000 381.446 C 268.880 381.306,269.600 381.033,269.600 380.840 C 269.600 380.647,270.230 380.371,271.000 380.226 C 271.770 380.082,272.400 379.815,272.400 379.633 C 272.400 379.451,273.120 379.187,274.000 379.046 C 274.880 378.906,275.600 378.621,275.600 378.413 C 275.600 378.206,276.230 377.918,277.000 377.774 C 277.770 377.629,278.400 377.365,278.400 377.187 C 278.400 377.009,278.940 376.745,279.600 376.600 C 280.260 376.455,280.800 376.185,280.800 376.000 C 280.800 375.815,281.340 375.545,282.000 375.400 C 282.660 375.255,283.200 374.985,283.200 374.800 C 283.200 374.615,283.740 374.345,284.400 374.200 C 285.060 374.055,285.600 373.785,285.600 373.600 C 285.600 373.415,286.140 373.145,286.800 373.000 C 287.460 372.855,288.000 372.585,288.000 372.400 C 288.000 372.215,288.540 371.945,289.200 371.800 C 289.860 371.655,290.400 371.390,290.400 371.212 C 290.400 371.033,290.850 370.774,291.400 370.636 C 291.950 370.498,292.400 370.222,292.400 370.024 C 292.400 369.826,292.940 369.545,293.600 369.400 C 294.260 369.255,294.800 368.971,294.800 368.768 C 294.800 368.566,295.076 368.400,295.413 368.400 C 295.749 368.400,296.124 368.141,296.246 367.824 C 296.367 367.508,296.992 367.134,297.633 366.993 C 298.275 366.852,298.800 366.574,298.800 366.376 C 298.800 366.178,299.250 365.902,299.800 365.764 C 300.350 365.626,300.800 365.353,300.800 365.157 C 300.800 364.960,301.076 364.800,301.413 364.800 C 301.749 364.800,302.122 364.546,302.241 364.236 C 302.361 363.926,302.895 363.563,303.429 363.428 C 303.963 363.294,304.400 363.008,304.400 362.792 C 304.400 362.577,304.676 362.400,305.013 362.400 C 305.349 362.400,305.722 362.146,305.841 361.836 C 305.961 361.526,306.495 361.163,307.029 361.028 C 307.563 360.894,308.000 360.608,308.000 360.392 C 308.000 360.177,308.276 360.000,308.613 360.000 C 308.949 360.000,309.329 359.730,309.455 359.400 C 309.582 359.070,309.938 358.800,310.247 358.800 C 310.555 358.800,311.116 358.440,311.493 358.000 C 311.870 357.560,312.342 357.200,312.543 357.200 C 312.744 357.200,313.306 356.771,313.792 356.247 C 314.278 355.723,315.063 355.170,315.538 355.020 C 316.012 354.869,316.400 354.573,316.400 354.360 C 316.400 354.148,316.715 353.859,317.100 353.717 C 317.485 353.576,318.169 353.086,318.619 352.630 C 319.070 352.173,320.060 351.363,320.819 350.830 C 321.579 350.296,322.344 349.621,322.520 349.330 C 322.696 349.038,323.025 348.800,323.252 348.800 C 323.479 348.800,324.744 347.720,326.064 346.400 C 327.384 345.080,328.603 344.000,328.774 344.000 C 329.205 344.000,342.000 331.200,342.000 330.768 C 342.000 330.575,342.990 329.443,344.200 328.252 C 345.410 327.061,346.406 325.932,346.413 325.743 C 346.420 325.554,347.050 324.779,347.813 324.019 C 348.576 323.260,349.200 322.486,349.200 322.300 C 349.200 322.114,349.650 321.545,350.200 321.035 C 350.750 320.525,351.200 319.913,351.200 319.674 C 351.200 319.435,351.438 319.096,351.730 318.920 C 352.021 318.744,352.696 317.970,353.230 317.200 C 353.763 316.430,354.425 315.656,354.700 315.480 C 354.975 315.304,355.200 314.899,355.200 314.580 C 355.200 314.261,355.377 314.000,355.592 314.000 C 355.808 314.000,356.094 313.563,356.228 313.029 C 356.363 312.495,356.726 311.961,357.036 311.841 C 357.346 311.722,357.600 311.349,357.600 311.013 C 357.600 310.676,357.777 310.400,357.992 310.400 C 358.208 310.400,358.494 309.963,358.628 309.429 C 358.763 308.895,359.126 308.361,359.436 308.241 C 359.746 308.122,360.000 307.749,360.000 307.413 C 360.000 307.076,360.177 306.800,360.392 306.800 C 360.608 306.800,360.894 306.363,361.028 305.829 C 361.163 305.295,361.526 304.761,361.836 304.641 C 362.146 304.522,362.400 304.149,362.400 303.813 C 362.400 303.476,362.568 303.200,362.773 303.200 C 362.978 303.200,363.272 302.795,363.427 302.300 C 363.581 301.805,363.819 301.310,363.954 301.200 C 364.354 300.875,365.194 299.481,365.702 298.300 C 365.962 297.695,366.296 297.200,366.444 297.200 C 366.592 297.200,366.826 296.750,366.964 296.200 C 367.102 295.650,367.378 295.200,367.576 295.200 C 367.774 295.200,368.055 294.660,368.200 294.000 C 368.345 293.340,368.615 292.800,368.800 292.800 C 368.985 292.800,369.255 292.260,369.400 291.600 C 369.545 290.940,369.815 290.400,370.000 290.400 C 370.185 290.400,370.455 289.860,370.600 289.200 C 370.745 288.540,371.015 288.000,371.200 288.000 C 371.385 288.000,371.655 287.460,371.800 286.800 C 371.945 286.140,372.215 285.600,372.400 285.600 C 372.585 285.600,372.855 285.060,373.000 284.400 C 373.145 283.740,373.415 283.200,373.600 283.200 C 373.785 283.200,374.055 282.660,374.200 282.000 C 374.345 281.340,374.621 280.800,374.814 280.800 C 375.006 280.800,375.282 280.170,375.426 279.400 C 375.571 278.630,375.849 278.000,376.045 278.000 C 376.240 278.000,376.401 277.775,376.402 277.500 C 376.404 277.225,376.657 276.517,376.965 275.927 C 377.273 275.337,377.646 274.302,377.794 273.627 C 377.942 272.952,378.218 272.400,378.407 272.400 C 378.596 272.400,378.872 271.590,379.021 270.600 C 379.169 269.610,379.442 268.800,379.627 268.800 C 379.812 268.800,380.082 268.170,380.226 267.400 C 380.371 266.630,380.629 266.000,380.799 266.000 C 380.970 266.000,381.231 265.190,381.379 264.200 C 381.528 263.210,381.798 262.400,381.979 262.400 C 382.161 262.400,382.431 261.590,382.579 260.600 C 382.728 259.610,383.005 258.800,383.196 258.800 C 383.386 258.800,383.666 257.810,383.817 256.600 C 383.968 255.390,384.245 254.400,384.432 254.400 C 384.619 254.400,384.892 253.500,385.038 252.400 C 385.184 251.300,385.442 250.400,385.612 250.400 C 385.782 250.400,386.047 249.320,386.200 248.000 C 386.353 246.680,386.618 245.600,386.788 245.600 C 386.958 245.600,387.221 244.340,387.373 242.800 C 387.524 241.260,387.794 240.000,387.973 240.000 C 388.151 240.000,388.422 238.560,388.576 236.800 C 388.729 235.040,388.999 233.600,389.176 233.600 C 389.353 233.600,389.628 231.755,389.787 229.500 C 389.947 227.245,390.234 225.303,390.424 225.185 C 390.615 225.067,390.895 221.782,391.047 217.885 C 391.199 213.988,391.476 210.800,391.662 210.800 C 391.848 210.800,392.000 206.390,392.000 201.000 C 392.000 195.610,391.848 191.200,391.661 191.200 C 391.475 191.200,391.196 188.100,391.043 184.312 C 390.889 180.524,390.617 177.329,390.438 177.212 C 390.260 177.095,389.984 175.202,389.826 173.004 C 389.667 170.807,389.395 168.917,389.221 168.804 C 389.047 168.692,388.776 167.205,388.618 165.500 C 388.461 163.795,388.190 162.400,388.018 162.400 C 387.845 162.400,387.579 161.140,387.427 159.600 C 387.276 158.060,387.006 156.800,386.827 156.800 C 386.649 156.800,386.381 155.720,386.232 154.400 C 386.082 153.080,385.807 152.000,385.619 152.000 C 385.432 152.000,385.153 150.920,385.000 149.600 C 384.847 148.280,384.570 147.200,384.385 147.200 C 384.200 147.200,383.928 146.390,383.779 145.400 C 383.631 144.410,383.373 143.600,383.206 143.600 C 383.039 143.600,382.784 142.700,382.638 141.600 C 382.492 140.500,382.219 139.600,382.032 139.600 C 381.844 139.600,381.569 138.790,381.421 137.800 C 381.272 136.810,380.984 136.000,380.780 136.000 C 380.576 136.000,380.294 135.280,380.154 134.400 C 380.013 133.520,379.761 132.800,379.593 132.800 C 379.426 132.800,379.171 132.170,379.026 131.400 C 378.882 130.630,378.615 130.000,378.433 130.000 C 378.251 130.000,377.987 129.280,377.846 128.400 C 377.706 127.520,377.433 126.800,377.240 126.800 C 377.047 126.800,376.771 126.170,376.626 125.400 C 376.482 124.630,376.206 124.000,376.014 124.000 C 375.821 124.000,375.545 123.460,375.400 122.800 C 375.255 122.140,374.971 121.600,374.768 121.600 C 374.566 121.600,374.400 121.239,374.400 120.799 C 374.400 120.358,374.040 119.325,373.600 118.504 C 373.160 117.684,372.800 116.784,372.800 116.506 C 372.800 116.228,372.634 116.000,372.432 116.000 C 372.229 116.000,371.945 115.460,371.800 114.800 C 371.655 114.140,371.385 113.600,371.200 113.600 C 371.015 113.600,370.745 113.060,370.600 112.400 C 370.455 111.740,370.210 111.200,370.056 111.200 C 369.902 111.200,369.562 110.705,369.302 110.100 C 368.794 108.919,367.954 107.525,367.554 107.200 C 367.419 107.090,367.170 106.558,367.001 106.019 C 366.832 105.479,366.448 104.791,366.147 104.490 C 365.846 104.189,365.600 103.686,365.600 103.371 C 365.600 103.057,365.459 102.800,365.288 102.800 C 365.116 102.800,364.762 102.305,364.502 101.700 C 363.971 100.466,363.245 99.302,362.500 98.488 C 362.225 98.188,362.000 97.705,362.000 97.414 C 362.000 97.123,361.730 96.782,361.400 96.655 C 361.070 96.529,360.800 96.149,360.800 95.813 C 360.800 95.476,360.640 95.200,360.443 95.200 C 360.247 95.200,359.974 94.750,359.836 94.200 C 359.698 93.650,359.408 93.200,359.192 93.200 C 358.977 93.200,358.800 92.970,358.800 92.689 C 358.800 92.408,358.440 91.870,358.000 91.493 C 357.560 91.116,357.200 90.555,357.200 90.247 C 357.200 89.938,356.930 89.582,356.600 89.455 C 356.270 89.329,356.000 89.015,356.000 88.758 C 356.000 88.502,355.571 87.894,355.047 87.408 C 354.523 86.922,353.976 86.153,353.832 85.699 C 353.687 85.245,353.306 84.773,352.985 84.650 C 352.663 84.526,352.400 84.215,352.400 83.958 C 352.400 83.702,351.950 83.075,351.400 82.565 C 350.850 82.055,350.400 81.458,350.400 81.238 C 350.400 81.018,349.770 80.227,349.000 79.479 C 348.230 78.731,347.600 77.981,347.600 77.813 C 347.600 77.644,346.880 76.808,346.000 75.954 C 345.120 75.100,344.400 74.252,344.400 74.070 C 344.400 73.888,342.780 72.096,340.800 70.087 C 338.820 68.079,337.200 66.313,337.200 66.164 C 337.200 65.823,333.335 62.000,332.991 62.000 C 332.851 62.000,331.282 60.560,329.503 58.800 C 327.723 57.040,326.115 55.600,325.927 55.600 C 325.740 55.600,324.810 54.790,323.862 53.800 C 322.913 52.810,322.002 52.000,321.838 52.000 C 321.673 52.000,320.998 51.460,320.338 50.800 C 319.678 50.140,318.927 49.592,318.669 49.583 C 318.411 49.574,317.758 49.034,317.219 48.383 C 316.679 47.732,316.004 47.200,315.719 47.200 C 315.433 47.200,315.200 47.056,315.200 46.880 C 315.200 46.705,314.485 46.120,313.611 45.580 C 312.737 45.041,312.017 44.465,312.011 44.300 C 312.005 44.135,311.770 44.000,311.489 44.000 C 311.208 44.000,310.670 43.640,310.293 43.200 C 309.916 42.760,309.355 42.400,309.047 42.400 C 308.738 42.400,308.382 42.130,308.255 41.800 C 308.129 41.470,307.749 41.200,307.413 41.200 C 307.076 41.200,306.800 41.023,306.800 40.808 C 306.800 40.592,306.363 40.306,305.829 40.172 C 305.295 40.037,304.761 39.674,304.641 39.364 C 304.522 39.054,304.149 38.800,303.813 38.800 C 303.476 38.800,303.200 38.632,303.200 38.427 C 303.200 38.222,302.795 37.928,302.300 37.773 C 301.805 37.619,301.310 37.381,301.200 37.246 C 300.934 36.919,299.637 36.111,298.400 35.502 C 297.850 35.231,297.162 34.782,296.871 34.505 C 296.581 34.227,296.086 34.000,295.771 34.000 C 295.457 34.000,295.200 33.834,295.200 33.632 C 295.200 33.429,294.675 33.148,294.033 33.007 C 293.392 32.866,292.767 32.492,292.646 32.176 C 292.524 31.859,292.149 31.600,291.813 31.600 C 291.476 31.600,291.200 31.434,291.200 31.232 C 291.200 31.029,290.660 30.745,290.000 30.600 C 289.340 30.455,288.800 30.185,288.800 30.000 C 288.800 29.815,288.260 29.545,287.600 29.400 C 286.940 29.255,286.400 28.985,286.400 28.800 C 286.400 28.615,285.860 28.345,285.200 28.200 C 284.540 28.055,284.000 27.785,284.000 27.600 C 284.000 27.415,283.460 27.145,282.800 27.000 C 282.140 26.855,281.600 26.571,281.600 26.368 C 281.600 26.166,281.372 26.000,281.094 26.000 C 280.816 26.000,279.916 25.640,279.096 25.200 C 278.275 24.760,277.242 24.400,276.801 24.400 C 276.361 24.400,276.000 24.234,276.000 24.032 C 276.000 23.829,275.460 23.545,274.800 23.400 C 274.140 23.255,273.600 22.971,273.600 22.768 C 273.600 22.566,273.285 22.399,272.900 22.398 C 272.515 22.396,271.717 22.143,271.127 21.835 C 270.537 21.527,269.502 21.154,268.827 21.006 C 268.152 20.858,267.600 20.582,267.600 20.393 C 267.600 20.204,266.790 19.928,265.800 19.779 C 264.810 19.631,264.000 19.361,264.000 19.179 C 264.000 18.998,263.190 18.728,262.200 18.579 C 261.210 18.431,260.400 18.161,260.400 17.979 C 260.400 17.798,259.590 17.528,258.600 17.379 C 257.610 17.231,256.800 16.961,256.800 16.779 C 256.800 16.598,255.990 16.328,255.000 16.179 C 254.010 16.031,253.200 15.767,253.200 15.594 C 253.200 15.420,252.120 15.153,250.800 15.000 C 249.480 14.847,248.400 14.577,248.400 14.400 C 248.400 14.223,247.320 13.953,246.000 13.800 C 244.680 13.647,243.600 13.373,243.600 13.193 C 243.600 13.012,242.430 12.738,241.000 12.585 C 239.570 12.432,238.400 12.169,238.400 12.000 C 238.400 11.832,237.050 11.567,235.400 11.413 C 233.750 11.258,232.400 10.984,232.400 10.803 C 232.400 10.623,230.645 10.345,228.500 10.186 C 226.355 10.027,224.506 9.751,224.391 9.573 C 224.277 9.395,221.442 9.121,218.091 8.965 C 214.741 8.809,212.000 8.528,212.000 8.341 C 212.000 8.153,206.060 8.000,198.800 8.000 C 191.540 8.000,185.600 8.153,185.600 8.341 M214.000 53.843 C 260.982 58.445,301.897 84.503,326.580 125.543 C 327.421 126.941,328.400 128.832,328.755 129.744 C 329.110 130.656,330.345 133.145,331.500 135.275 C 332.655 137.405,333.600 139.385,333.599 139.674 C 333.598 139.963,329.503 142.617,324.499 145.571 C 319.495 148.525,310.627 153.770,304.794 157.225 C 298.961 160.681,293.471 163.908,292.594 164.397 C 291.027 165.272,278.926 172.416,258.000 184.819 C 252.170 188.275,246.680 191.506,245.800 191.999 C 241.651 194.326,232.546 199.755,232.096 200.170 C 231.593 200.635,232.237 201.069,239.692 205.296 C 240.755 205.899,245.355 208.613,249.913 211.328 C 254.471 214.043,259.075 216.753,260.145 217.349 C 261.214 217.946,266.434 221.005,271.745 224.147 C 277.055 227.289,286.037 232.588,291.705 235.921 C 297.373 239.255,306.553 244.666,312.105 247.947 C 317.657 251.227,322.920 254.310,323.800 254.797 C 324.680 255.285,327.339 256.849,329.709 258.273 L 334.017 260.861 331.609 265.416 C 330.284 267.921,329.200 270.177,329.200 270.429 C 329.200 271.073,324.402 279.056,321.285 283.600 C 299.144 315.872,264.696 338.474,227.400 345.199 C 224.760 345.675,221.790 346.224,220.800 346.418 C 211.851 348.175,187.224 348.148,177.600 346.370 C 176.390 346.146,173.420 345.597,171.000 345.149 C 99.267 331.871,45.542 262.213,51.954 190.800 C 52.972 179.464,53.142 178.220,54.688 170.800 C 56.263 163.240,60.864 147.685,61.966 146.200 C 62.129 145.980,62.586 144.900,62.982 143.800 C 75.660 108.589,113.125 73.607,151.800 60.869 C 160.471 58.013,163.975 57.081,170.800 55.815 C 172.670 55.468,175.102 55.005,176.204 54.785 C 178.423 54.343,184.956 53.688,192.000 53.202 C 197.700 52.809,205.872 53.047,214.000 53.843 " stroke="none" fill="#2c2c2c" fill-rule="evenodd"></path></g></svg>