<svg id="svg" version="1.1" xmlns="http://www.w3.org/2000/svg" xmlns:xlink="http://www.w3.org/1999/xlink" width="400" height="403.43839541547277" viewBox="0, 0, 400,403.43839541547277"><g id="svgg"><path id="path0" d="M135.200 8.200 C 134.926 8.530,134.460 8.800,134.165 8.800 C 133.869 8.800,133.075 9.340,132.400 10.000 C 131.725 10.660,131.313 11.200,131.485 11.200 C 131.657 11.200,130.944 11.996,129.899 12.969 C 128.855 13.941,128.000 14.931,128.000 15.169 C 128.000 15.406,127.730 15.600,127.400 15.600 C 127.070 15.600,126.800 15.870,126.800 16.200 C 126.800 16.530,126.623 16.800,126.407 16.800 C 125.866 16.800,123.200 19.432,123.200 19.967 C 123.200 20.205,123.004 20.400,122.764 20.400 C 122.233 20.400,118.800 23.877,118.800 24.415 C 118.800 24.627,118.530 24.800,118.200 24.800 C 117.870 24.800,117.600 25.070,117.600 25.400 C 117.600 25.730,117.422 26.000,117.205 26.000 C 116.656 26.000,110.800 31.812,110.800 32.357 C 110.800 32.600,110.530 32.800,110.200 32.800 C 109.870 32.800,109.600 33.070,109.600 33.400 C 109.600 33.730,109.406 34.000,109.168 34.000 C 108.606 34.000,105.200 37.406,105.200 37.968 C 105.200 38.206,104.970 38.400,104.689 38.400 C 104.218 38.400,102.800 39.755,102.800 40.205 C 102.800 40.474,101.252 42.000,100.979 42.000 C 100.311 42.000,94.472 48.453,94.968 48.643 C 95.558 48.870,100.400 44.412,100.400 43.642 C 100.400 43.399,100.580 43.200,100.800 43.200 C 101.319 43.200,102.800 41.719,102.800 41.200 C 102.800 40.980,102.967 40.800,103.170 40.800 C 103.676 40.800,126.800 17.707,126.800 17.202 C 126.800 16.981,127.070 16.800,127.400 16.800 C 127.730 16.800,128.000 16.530,128.000 16.200 C 128.000 15.870,128.270 15.600,128.600 15.600 C 128.930 15.600,129.200 15.330,129.200 15.000 C 129.200 14.670,129.470 14.400,129.800 14.400 C 130.130 14.400,130.400 14.130,130.400 13.800 C 130.400 13.470,130.593 13.200,130.829 13.200 C 131.382 13.200,132.400 12.182,132.400 11.629 C 132.400 11.393,132.670 11.200,133.000 11.200 C 133.330 11.200,133.600 10.950,133.600 10.645 C 133.600 8.293,138.195 9.857,141.600 13.368 C 146.114 18.021,152.027 23.795,152.421 23.933 C 152.629 24.007,152.800 24.205,152.800 24.374 C 152.800 24.543,154.888 26.733,157.440 29.240 C 159.991 31.748,163.546 35.305,165.340 37.145 C 172.370 44.357,173.867 45.847,175.344 47.100 C 176.187 47.815,176.781 48.400,176.662 48.400 C 176.544 48.400,177.472 49.345,178.724 50.500 C 179.976 51.655,181.144 52.825,181.320 53.100 C 181.496 53.375,181.901 53.600,182.220 53.600 C 182.539 53.600,182.755 53.749,182.700 53.932 C 182.603 54.253,184.559 56.308,195.900 67.808 C 198.815 70.764,201.200 73.268,201.200 73.372 C 201.200 73.737,207.243 79.600,207.619 79.600 C 207.829 79.600,208.000 79.870,208.000 80.200 C 208.000 80.530,208.270 80.800,208.600 80.800 C 208.930 80.800,209.200 81.070,209.200 81.400 C 209.200 81.730,209.470 82.000,209.800 82.000 C 210.130 82.000,210.400 82.173,210.400 82.384 C 210.400 82.894,221.896 94.400,222.405 94.400 C 222.622 94.400,222.800 94.670,222.800 95.000 C 222.800 95.330,223.070 95.600,223.400 95.600 C 223.730 95.600,224.000 95.870,224.000 96.200 C 224.000 96.530,224.270 96.800,224.600 96.800 C 224.930 96.800,225.200 97.070,225.200 97.400 C 225.200 97.730,225.470 98.000,225.800 98.000 C 226.130 98.000,226.400 98.270,226.400 98.600 C 226.400 98.930,226.670 99.200,227.000 99.200 C 227.330 99.200,227.600 99.374,227.600 99.586 C 227.600 100.109,229.869 102.400,230.387 102.400 C 230.614 102.400,230.800 102.670,230.800 103.000 C 230.800 103.330,231.070 103.600,231.400 103.600 C 231.730 103.600,232.000 103.870,232.000 104.200 C 232.000 104.530,232.270 104.800,232.600 104.800 C 232.930 104.800,233.200 105.070,233.200 105.400 C 233.200 105.730,233.470 106.000,233.800 106.000 C 234.130 106.000,234.400 106.270,234.400 106.600 C 234.400 106.930,234.670 107.200,235.000 107.200 C 235.330 107.200,235.600 107.380,235.600 107.600 C 235.600 108.122,240.278 112.800,240.800 112.800 C 241.020 112.800,241.200 113.070,241.200 113.400 C 241.200 113.730,241.470 114.000,241.800 114.000 C 242.130 114.000,242.400 114.270,242.400 114.600 C 242.400 114.949,242.763 115.200,243.267 115.200 C 243.743 115.200,244.028 115.305,243.900 115.433 C 243.772 115.562,243.967 115.986,244.333 116.376 C 244.700 116.766,245.448 117.651,245.996 118.342 C 246.543 119.034,247.218 119.600,247.496 119.600 C 247.773 119.600,248.000 119.870,248.000 120.200 C 248.000 120.530,248.270 120.800,248.600 120.800 C 248.930 120.800,249.200 121.070,249.200 121.400 C 249.200 121.730,249.470 122.000,249.800 122.000 C 250.130 122.000,250.400 122.270,250.400 122.600 C 250.400 122.930,250.670 123.200,251.000 123.200 C 251.330 123.200,251.600 123.470,251.600 123.800 C 251.600 124.130,251.870 124.400,252.200 124.400 C 252.530 124.400,252.800 124.596,252.800 124.836 C 252.800 125.367,256.277 128.800,256.815 128.800 C 257.027 128.800,257.200 129.070,257.200 129.400 C 257.200 129.730,257.470 130.000,257.800 130.000 C 258.130 130.000,258.400 130.180,258.400 130.400 C 258.400 130.621,259.120 131.500,260.000 132.354 C 260.880 133.208,261.600 134.107,261.600 134.353 C 261.600 134.599,261.870 134.800,262.200 134.800 C 262.530 134.800,262.800 135.038,262.800 135.328 C 262.800 135.618,263.295 136.410,263.900 137.088 L 265.000 138.320 265.000 201.545 C 265.000 261.705,264.965 264.805,264.286 265.485 C 263.607 266.164,260.479 266.206,201.310 266.314 C 164.021 266.382,138.870 266.576,138.603 266.797 C 138.091 267.222,136.400 266.881,136.400 266.353 C 136.400 266.159,136.156 266.000,135.858 266.000 C 135.561 266.000,134.831 265.550,134.238 265.000 C 133.644 264.450,133.071 264.000,132.963 264.000 C 132.855 264.000,132.380 263.640,131.908 263.200 C 130.902 262.263,130.400 262.181,130.400 262.953 C 130.400 263.666,133.416 266.400,134.201 266.400 C 134.531 266.400,134.800 266.670,134.800 267.000 C 134.800 267.330,134.993 267.600,135.229 267.600 C 135.837 267.600,136.647 268.488,136.972 269.511 C 137.271 270.455,141.826 275.200,142.432 275.200 C 142.634 275.200,142.800 275.470,142.800 275.800 C 142.800 276.130,143.070 276.400,143.400 276.400 C 143.730 276.400,144.000 276.670,144.000 277.000 C 144.000 277.330,144.270 277.600,144.600 277.600 C 144.930 277.600,145.200 277.870,145.200 278.200 C 145.200 278.530,145.470 278.800,145.800 278.800 C 146.130 278.800,146.400 278.966,146.400 279.168 C 146.400 279.648,151.152 284.400,151.632 284.400 C 151.834 284.400,152.000 284.670,152.000 285.000 C 152.000 285.330,152.270 285.600,152.600 285.600 C 152.930 285.600,153.200 285.870,153.200 286.200 C 153.200 286.530,153.470 286.800,153.800 286.800 C 154.130 286.800,154.400 286.966,154.400 287.170 C 154.400 287.694,159.052 292.400,159.571 292.400 C 159.807 292.400,160.000 292.670,160.000 293.000 C 160.000 293.330,160.270 293.600,160.600 293.600 C 160.930 293.600,161.200 293.870,161.200 294.200 C 161.200 294.530,161.470 294.800,161.800 294.800 C 162.130 294.800,162.400 295.070,162.400 295.400 C 162.400 295.730,162.670 296.000,163.000 296.000 C 163.330 296.000,163.600 296.270,163.600 296.600 C 163.600 296.930,163.746 297.200,163.925 297.200 C 164.104 297.200,167.631 300.530,171.762 304.600 C 175.894 308.670,179.528 312.000,179.837 312.000 C 180.147 312.000,180.400 312.225,180.400 312.500 C 180.400 312.775,180.947 313.540,181.615 314.200 C 182.283 314.860,185.478 318.046,188.715 321.279 C 191.952 324.513,194.870 327.406,195.200 327.709 C 195.530 328.011,196.482 329.011,197.316 329.929 C 198.150 330.848,199.095 331.600,199.416 331.600 C 199.737 331.600,200.000 331.870,200.000 332.200 C 200.000 332.530,200.270 332.800,200.600 332.800 C 200.930 332.800,201.200 333.011,201.200 333.269 C 201.200 333.825,204.640 337.200,205.207 337.200 C 205.423 337.200,205.600 337.395,205.600 337.633 C 205.600 337.872,206.185 338.649,206.900 339.360 C 207.615 340.071,208.666 341.181,209.235 341.826 C 209.805 342.472,210.975 343.649,211.835 344.443 C 212.696 345.236,214.267 346.811,215.327 347.943 C 216.387 349.074,217.512 350.000,217.827 350.000 C 218.142 350.000,218.400 350.221,218.400 350.491 C 218.400 350.761,219.075 351.624,219.900 352.408 C 220.725 353.192,221.686 354.186,222.036 354.617 C 222.961 355.755,225.617 358.000,226.039 358.000 C 226.237 358.000,226.400 358.203,226.400 358.452 C 226.400 358.950,229.963 362.400,230.477 362.400 C 230.655 362.400,230.800 362.670,230.800 363.000 C 230.800 363.330,231.070 363.600,231.400 363.600 C 231.730 363.600,232.000 363.870,232.000 364.200 C 232.000 364.530,232.270 364.800,232.600 364.800 C 232.930 364.800,233.200 365.035,233.200 365.322 C 233.200 365.893,235.629 368.400,236.183 368.400 C 236.595 368.400,240.000 372.049,240.000 372.491 C 240.000 372.661,240.270 372.800,240.600 372.800 C 240.930 372.800,241.200 373.070,241.200 373.400 C 241.200 373.730,241.470 374.000,241.800 374.000 C 242.130 374.000,242.400 374.180,242.400 374.400 C 242.400 374.919,243.881 376.400,244.400 376.400 C 244.620 376.400,244.800 376.661,244.800 376.980 C 244.800 377.299,245.038 377.704,245.330 377.880 C 245.621 378.056,246.285 378.785,246.805 379.500 C 247.325 380.215,247.908 380.800,248.101 380.800 C 248.294 380.800,248.906 381.340,249.461 382.000 C 250.017 382.660,250.725 383.200,251.036 383.200 C 251.346 383.200,251.600 383.431,251.600 383.713 C 251.600 383.995,252.455 385.045,253.500 386.046 C 254.545 387.048,257.020 389.606,259.000 391.731 C 261.485 394.399,262.879 395.596,263.500 395.598 C 263.995 395.599,264.400 395.780,264.400 396.000 C 264.400 396.220,264.760 396.400,265.200 396.400 C 265.640 396.400,266.000 396.220,266.000 396.000 C 266.000 395.780,266.360 395.600,266.800 395.600 C 267.244 395.600,267.600 395.333,267.600 395.000 C 267.600 394.670,267.870 394.400,268.200 394.400 C 268.530 394.400,268.800 394.234,268.800 394.031 C 268.800 393.550,271.150 391.200,271.631 391.200 C 271.834 391.200,272.000 391.020,272.000 390.800 C 272.000 390.281,273.481 388.800,274.000 388.800 C 274.220 388.800,274.400 388.530,274.400 388.200 C 274.400 387.870,274.670 387.600,275.000 387.600 C 275.330 387.600,275.600 387.428,275.600 387.219 C 275.600 386.740,279.163 383.200,279.645 383.200 C 279.840 383.200,280.000 383.026,280.000 382.813 C 280.000 382.310,282.710 379.600,283.213 379.600 C 283.426 379.600,283.600 379.428,283.600 379.217 C 283.600 378.738,288.366 374.000,288.847 374.000 C 289.041 374.000,289.200 373.730,289.200 373.400 C 289.200 373.070,289.470 372.800,289.800 372.800 C 290.130 372.800,290.400 372.530,290.400 372.200 C 290.400 371.870,290.670 371.600,291.000 371.600 C 291.330 371.600,291.600 371.330,291.600 371.000 C 291.600 370.670,291.870 370.400,292.200 370.400 C 292.530 370.400,292.800 370.130,292.800 369.800 C 292.800 369.470,293.070 369.200,293.400 369.200 C 293.730 369.200,294.000 369.044,294.000 368.853 C 294.000 368.400,297.600 364.800,298.053 364.800 C 298.244 364.800,298.400 364.530,298.400 364.200 C 298.400 363.870,298.670 363.600,299.000 363.600 C 299.330 363.600,299.600 363.330,299.600 363.000 C 299.600 362.670,299.870 362.400,300.200 362.400 C 300.530 362.400,300.800 362.130,300.800 361.800 C 300.800 361.470,301.070 361.200,301.400 361.200 C 301.730 361.200,302.000 360.930,302.000 360.600 C 302.000 360.270,302.166 360.000,302.369 360.000 C 302.850 360.000,305.200 357.650,305.200 357.169 C 305.200 356.966,305.470 356.800,305.800 356.800 C 306.130 356.800,306.400 356.530,306.400 356.200 C 306.400 355.870,306.670 355.600,307.000 355.600 C 307.330 355.600,307.600 355.330,307.600 355.000 C 307.600 354.670,307.870 354.400,308.200 354.400 C 308.530 354.400,308.800 354.130,308.800 353.800 C 308.800 353.470,309.070 353.200,309.400 353.200 C 309.730 353.200,310.000 352.930,310.000 352.600 C 310.000 352.270,310.175 352.000,310.389 352.000 C 310.604 352.000,311.594 351.185,312.589 350.189 C 313.585 349.194,314.400 348.204,314.400 347.989 C 314.400 347.775,314.670 347.600,315.000 347.600 C 315.330 347.600,315.600 347.330,315.600 347.000 C 315.600 346.670,315.870 346.400,316.200 346.400 C 316.530 346.400,316.800 346.130,316.800 345.800 C 316.800 345.470,317.070 345.200,317.400 345.200 C 317.730 345.200,318.000 344.930,318.000 344.600 C 318.000 344.270,318.175 344.000,318.389 344.000 C 318.604 344.000,319.594 343.185,320.589 342.189 C 321.585 341.194,322.400 340.204,322.400 339.989 C 322.400 339.775,322.670 339.600,323.000 339.600 C 323.330 339.600,323.600 339.330,323.600 339.000 C 323.600 338.670,323.870 338.400,324.200 338.400 C 324.530 338.400,324.800 338.130,324.800 337.800 C 324.800 337.470,325.070 337.200,325.400 337.200 C 325.730 337.200,326.000 336.930,326.000 336.600 C 326.000 336.270,326.270 336.000,326.600 336.000 C 326.930 336.000,327.200 335.730,327.200 335.400 C 327.200 335.070,327.360 334.800,327.555 334.800 C 328.037 334.800,331.600 331.260,331.600 330.781 C 331.600 330.572,331.870 330.400,332.200 330.400 C 332.530 330.400,332.800 330.130,332.800 329.800 C 332.800 329.470,333.070 329.200,333.400 329.200 C 333.730 329.200,334.000 328.930,334.000 328.600 C 334.000 328.270,334.270 328.000,334.600 328.000 C 334.930 328.000,335.200 327.730,335.200 327.400 C 335.200 327.070,335.373 326.800,335.585 326.800 C 336.123 326.800,339.600 323.367,339.600 322.836 C 339.600 322.596,339.870 322.400,340.200 322.400 C 340.530 322.400,340.800 322.130,340.800 321.800 C 340.800 321.470,341.070 321.200,341.400 321.200 C 341.730 321.200,342.000 320.930,342.000 320.600 C 342.000 320.270,342.270 320.000,342.600 320.000 C 342.930 320.000,343.200 319.730,343.200 319.400 C 343.200 319.070,343.399 318.800,343.642 318.800 C 344.181 318.800,348.800 314.135,348.800 313.590 C 348.800 313.375,349.070 313.200,349.400 313.200 C 349.730 313.200,350.000 312.930,350.000 312.600 C 350.000 312.270,350.270 312.000,350.600 312.000 C 350.930 312.000,351.200 311.730,351.200 311.400 C 351.200 311.070,351.380 310.800,351.600 310.800 C 351.820 310.800,353.080 309.720,354.400 308.400 C 355.720 307.080,356.800 305.820,356.800 305.600 C 356.800 305.380,357.070 305.200,357.400 305.200 C 357.730 305.200,358.000 304.930,358.000 304.600 C 358.000 304.270,358.270 304.000,358.600 304.000 C 358.930 304.000,359.200 303.730,359.200 303.400 C 359.200 303.070,359.470 302.800,359.800 302.800 C 360.130 302.800,360.400 302.530,360.400 302.200 C 360.400 301.870,360.599 301.600,360.842 301.600 C 361.381 301.600,366.000 296.935,366.000 296.390 C 366.000 296.175,366.270 296.000,366.600 296.000 C 366.930 296.000,367.200 295.730,367.200 295.400 C 367.200 295.070,367.470 294.800,367.800 294.800 C 368.130 294.800,368.400 294.530,368.400 294.200 C 368.400 293.870,368.580 293.600,368.800 293.600 C 369.020 293.600,370.280 292.520,371.600 291.200 C 372.920 289.880,374.000 288.620,374.000 288.400 C 374.000 288.180,374.270 288.000,374.600 288.000 C 374.930 288.000,375.200 287.730,375.200 287.400 C 375.200 287.070,375.470 286.800,375.800 286.800 C 376.130 286.800,376.400 286.530,376.400 286.200 C 376.400 285.870,376.670 285.600,377.000 285.600 C 377.330 285.600,377.600 285.330,377.600 285.000 C 377.600 284.670,377.775 284.400,377.989 284.400 C 378.204 284.400,379.194 283.585,380.189 282.589 C 381.185 281.594,382.000 280.604,382.000 280.389 C 382.000 280.175,382.270 280.000,382.600 280.000 C 382.930 280.000,383.200 279.730,383.200 279.400 C 383.200 279.070,383.470 278.800,383.800 278.800 C 384.130 278.800,384.400 278.530,384.400 278.200 C 384.400 277.870,384.670 277.600,385.000 277.600 C 385.330 277.600,385.600 277.330,385.600 277.000 C 385.600 276.670,385.799 276.400,386.042 276.400 C 386.581 276.400,391.200 271.735,391.200 271.190 C 391.200 270.975,391.470 270.800,391.800 270.800 C 392.130 270.800,392.400 270.549,392.400 270.243 C 392.400 269.936,392.670 269.582,393.000 269.455 C 393.330 269.329,393.600 268.854,393.600 268.400 C 393.600 267.946,393.870 267.471,394.200 267.345 C 394.530 267.218,394.800 266.684,394.800 266.157 C 394.800 265.573,394.566 265.200,394.200 265.200 C 393.864 265.200,393.600 264.843,393.600 264.387 C 393.600 263.941,393.330 263.471,393.000 263.345 C 392.670 263.218,392.400 262.864,392.400 262.557 C 392.400 262.251,392.130 262.000,391.800 262.000 C 391.470 262.000,391.200 261.730,391.200 261.400 C 391.200 261.070,390.930 260.800,390.600 260.800 C 390.270 260.800,390.000 260.600,390.000 260.357 C 390.000 259.812,384.144 254.000,383.595 254.000 C 383.378 254.000,383.200 253.730,383.200 253.400 C 383.200 253.070,382.930 252.800,382.600 252.800 C 382.270 252.800,382.000 252.530,382.000 252.200 C 382.000 251.870,381.841 251.600,381.648 251.600 C 381.123 251.600,371.600 242.166,371.600 241.647 C 371.600 241.401,371.375 241.192,371.100 241.181 C 370.825 241.171,370.060 240.472,369.400 239.628 C 368.740 238.784,367.706 237.757,367.101 237.347 C 366.497 236.936,366.002 236.375,366.001 236.100 C 366.001 235.825,365.730 235.600,365.400 235.600 C 365.070 235.600,364.800 235.432,364.800 235.227 C 364.800 234.748,358.843 228.800,358.363 228.800 C 358.163 228.800,358.000 228.530,358.000 228.200 C 358.000 227.870,357.730 227.600,357.400 227.600 C 357.070 227.600,356.800 227.330,356.800 227.000 C 356.800 226.670,356.617 226.400,356.394 226.400 C 356.040 226.400,354.671 225.041,350.656 220.700 C 350.096 220.095,349.450 219.600,349.219 219.600 C 348.989 219.600,348.800 219.330,348.800 219.000 C 348.800 218.670,348.530 218.400,348.200 218.400 C 347.870 218.400,347.600 218.130,347.600 217.800 C 347.600 217.470,347.330 217.200,347.000 217.200 C 346.670 217.200,346.400 217.026,346.400 216.812 C 346.400 216.312,341.681 211.600,341.180 211.600 C 340.971 211.600,340.800 211.330,340.800 211.000 C 340.800 210.670,340.530 210.400,340.200 210.400 C 339.870 210.400,339.600 210.130,339.600 209.800 C 339.600 209.470,339.330 209.200,339.000 209.200 C 338.670 209.200,338.400 208.930,338.400 208.600 C 338.400 208.270,338.265 207.999,338.100 207.998 C 337.935 207.998,336.180 206.470,334.200 204.604 C 332.220 202.738,330.375 201.208,330.100 201.205 C 329.825 201.202,329.600 200.930,329.600 200.600 C 329.600 200.270,329.330 200.000,329.000 200.000 C 328.670 200.000,328.400 199.730,328.400 199.400 C 328.400 199.070,328.130 198.800,327.800 198.800 C 327.470 198.800,327.200 198.620,327.200 198.400 C 327.200 197.881,325.719 196.400,325.200 196.400 C 324.980 196.400,324.800 196.130,324.800 195.800 C 324.800 195.470,324.530 195.200,324.200 195.200 C 323.870 195.200,323.600 195.007,323.600 194.771 C 323.600 194.218,322.582 193.200,322.029 193.200 C 321.793 193.200,321.600 192.930,321.600 192.600 C 321.600 192.270,321.330 192.000,321.000 192.000 C 320.670 192.000,320.397 191.775,320.393 191.500 C 320.383 190.760,316.921 187.200,316.211 187.200 C 315.875 187.200,315.600 186.883,315.600 186.496 C 315.600 186.108,314.302 184.623,312.716 183.196 C 311.130 181.768,309.297 180.015,308.643 179.300 C 307.988 178.585,307.216 178.000,306.926 178.000 C 306.637 178.000,306.400 177.831,306.400 177.625 C 306.400 177.027,301.908 172.400,301.327 172.400 C 301.037 172.400,300.800 172.211,300.800 171.981 C 300.800 171.750,299.585 170.329,298.100 168.823 C 296.615 167.317,294.695 165.330,293.834 164.408 C 292.973 163.486,291.848 162.457,291.334 162.120 C 290.820 161.783,290.400 161.254,290.400 160.944 C 290.400 160.634,289.950 160.209,289.400 160.000 C 288.850 159.791,288.400 159.435,288.400 159.210 C 288.400 158.984,288.130 158.800,287.800 158.800 C 287.470 158.800,287.200 158.530,287.200 158.200 C 287.200 157.870,286.930 157.600,286.600 157.600 C 286.270 157.600,286.000 157.330,286.000 157.000 C 286.000 156.670,285.730 156.400,285.400 156.400 C 285.070 156.400,284.800 156.130,284.800 155.800 C 284.800 155.470,284.530 155.200,284.200 155.200 C 283.870 155.200,283.600 154.930,283.600 154.600 C 283.600 154.270,283.330 154.000,283.000 154.000 C 282.670 154.000,282.400 153.730,282.400 153.400 C 282.400 153.070,282.234 152.800,282.031 152.800 C 281.828 152.800,281.108 152.246,280.431 151.569 C 279.754 150.892,279.200 150.172,279.200 149.969 C 279.200 149.766,278.930 149.600,278.600 149.600 C 278.270 149.600,278.000 149.330,278.000 149.000 C 278.000 148.670,277.730 148.400,277.400 148.400 C 277.070 148.400,276.800 148.130,276.800 147.800 C 276.800 147.470,276.530 147.200,276.200 147.200 C 275.870 147.200,275.600 146.930,275.600 146.600 C 275.600 146.270,275.330 146.000,275.000 146.000 C 274.670 146.000,274.400 145.730,274.400 145.400 C 274.400 145.070,274.226 144.800,274.014 144.800 C 273.491 144.800,271.200 142.531,271.200 142.013 C 271.200 141.786,270.930 141.600,270.600 141.600 C 270.270 141.600,270.000 141.330,270.000 141.000 C 270.000 140.670,269.730 140.400,269.400 140.400 C 269.070 140.400,268.800 140.130,268.800 139.800 C 268.800 139.470,268.530 139.200,268.200 139.200 C 267.870 139.200,267.600 138.930,267.600 138.600 C 267.600 138.270,267.330 138.000,267.000 138.000 C 266.670 138.000,266.400 137.730,266.400 137.400 C 266.400 137.070,266.130 136.800,265.800 136.800 C 265.470 136.800,265.200 136.530,265.200 136.200 C 265.200 135.870,264.930 135.600,264.600 135.600 C 264.270 135.600,264.000 135.347,264.000 135.037 C 264.000 134.728,262.740 133.155,261.200 131.544 C 259.660 129.932,258.400 128.475,258.400 128.306 C 258.400 128.138,258.130 128.000,257.800 128.000 C 257.470 128.000,257.200 127.730,257.200 127.400 C 257.200 127.070,257.024 126.800,256.808 126.800 C 256.593 126.800,255.395 125.765,254.146 124.500 C 252.897 123.235,251.723 122.245,251.538 122.300 C 251.352 122.355,251.200 122.130,251.200 121.800 C 251.200 121.470,250.919 121.200,250.576 121.200 C 250.233 121.200,250.065 121.019,250.202 120.797 C 250.339 120.576,250.169 120.286,249.825 120.154 C 249.481 120.022,249.200 119.664,249.200 119.357 C 249.200 119.051,249.026 118.800,248.813 118.800 C 248.310 118.800,245.600 116.090,245.600 115.587 C 245.600 115.374,245.330 115.200,245.000 115.200 C 244.670 115.200,244.400 115.017,244.400 114.794 C 244.400 114.235,241.920 112.026,241.276 112.012 C 240.988 112.005,240.865 111.818,241.002 111.597 C 241.139 111.375,240.835 111.026,240.326 110.822 C 239.817 110.618,239.569 110.439,239.775 110.425 C 239.982 110.411,239.716 109.995,239.185 109.500 C 238.653 109.005,238.125 108.634,238.009 108.676 C 237.894 108.718,237.667 108.391,237.503 107.950 C 237.340 107.509,237.046 107.248,236.849 107.370 C 236.652 107.491,236.393 107.215,236.272 106.755 C 236.152 106.296,235.882 106.026,235.672 106.155 C 235.463 106.285,235.193 106.015,235.072 105.555 C 234.949 105.083,234.664 104.837,234.417 104.989 C 234.177 105.138,234.026 105.111,234.083 104.930 C 234.236 104.437,232.703 102.800,232.087 102.800 C 231.793 102.800,231.665 102.619,231.802 102.397 C 231.939 102.176,231.769 101.886,231.425 101.754 C 231.081 101.622,230.800 101.264,230.800 100.957 C 230.800 100.651,230.530 100.400,230.200 100.400 C 229.870 100.400,229.600 100.130,229.600 99.800 C 229.600 99.470,229.409 99.200,229.177 99.200 C 228.944 99.200,228.020 98.394,227.124 97.409 C 226.227 96.424,225.333 95.718,225.137 95.839 C 224.941 95.960,224.826 95.911,224.883 95.730 C 225.032 95.252,223.511 93.600,222.924 93.600 C 222.645 93.600,222.527 93.336,222.655 93.000 C 222.801 92.620,222.650 92.400,222.243 92.400 C 221.889 92.400,221.600 92.130,221.600 91.800 C 221.600 91.470,221.330 91.200,221.000 91.200 C 220.670 91.200,220.400 90.911,220.400 90.557 C 220.400 90.150,220.180 89.999,219.800 90.145 C 219.470 90.271,219.200 90.182,219.200 89.946 C 219.200 89.394,213.140 83.367,212.718 83.500 C 212.543 83.555,212.400 83.221,212.400 82.757 C 212.400 82.199,212.211 81.987,211.839 82.130 C 211.501 82.259,211.195 82.023,211.066 81.532 C 210.949 81.085,210.682 80.826,210.472 80.955 C 210.263 81.085,209.993 80.815,209.872 80.355 C 209.733 79.824,209.476 79.629,209.165 79.822 C 208.879 79.998,208.779 79.957,208.925 79.722 C 209.185 79.300,207.480 77.600,206.797 77.600 C 206.579 77.600,206.445 77.446,206.500 77.258 C 206.555 77.070,205.835 76.171,204.900 75.259 C 203.965 74.347,203.200 73.421,203.200 73.200 C 203.200 72.980,202.930 72.800,202.600 72.800 C 202.270 72.800,202.000 72.640,202.000 72.445 C 202.000 71.963,198.460 68.400,197.981 68.400 C 197.772 68.400,197.600 68.130,197.600 67.800 C 197.600 67.470,197.330 67.200,197.000 67.200 C 196.670 67.200,196.400 66.930,196.400 66.600 C 196.400 66.270,196.130 66.000,195.800 66.000 C 195.470 66.000,195.200 65.730,195.200 65.400 C 195.200 65.070,194.930 64.800,194.600 64.800 C 194.270 64.800,194.000 64.601,194.000 64.358 C 194.000 63.819,189.335 59.200,188.790 59.200 C 188.575 59.200,188.400 58.930,188.400 58.600 C 188.400 58.270,188.130 58.000,187.800 58.000 C 187.470 58.000,187.200 57.730,187.200 57.400 C 187.200 57.070,186.930 56.800,186.600 56.800 C 186.270 56.800,186.000 56.601,186.000 56.358 C 186.000 55.819,181.335 51.200,180.790 51.200 C 180.575 51.200,180.400 50.930,180.400 50.600 C 180.400 50.270,180.130 50.000,179.800 50.000 C 179.470 50.000,179.200 49.730,179.200 49.400 C 179.200 49.070,178.930 48.800,178.600 48.800 C 178.270 48.800,178.000 48.620,178.000 48.400 C 178.000 47.878,173.322 43.200,172.800 43.200 C 172.580 43.200,172.400 42.930,172.400 42.600 C 172.400 42.270,172.130 42.000,171.800 42.000 C 171.470 42.000,171.200 41.730,171.200 41.400 C 171.200 41.070,170.930 40.800,170.600 40.800 C 170.270 40.800,170.000 40.530,170.000 40.200 C 170.000 39.870,169.730 39.600,169.400 39.600 C 169.070 39.600,168.800 39.406,168.800 39.168 C 168.800 38.931,167.990 37.927,167.000 36.937 C 166.010 35.947,165.200 35.240,165.200 35.366 C 165.200 35.492,164.750 35.203,164.200 34.725 C 163.650 34.247,163.200 33.608,163.200 33.304 C 163.200 33.001,163.008 32.872,162.773 33.017 C 162.538 33.162,162.247 32.903,162.126 32.440 C 162.006 31.978,161.658 31.600,161.353 31.600 C 161.049 31.600,160.800 31.420,160.800 31.200 C 160.800 30.678,156.122 26.000,155.600 26.000 C 155.380 26.000,155.200 25.730,155.200 25.400 C 155.200 25.070,154.930 24.800,154.600 24.800 C 154.270 24.800,154.000 24.530,154.000 24.200 C 154.000 23.870,153.730 23.600,153.400 23.600 C 153.070 23.600,152.800 23.420,152.800 23.200 C 152.800 22.678,148.122 18.000,147.600 18.000 C 147.380 18.000,147.200 17.751,147.200 17.447 C 147.200 17.142,146.822 16.794,146.360 16.674 C 145.825 16.534,145.629 16.276,145.822 15.965 C 146.021 15.643,145.957 15.579,145.635 15.778 C 145.324 15.971,145.066 15.775,144.926 15.240 C 144.806 14.778,144.458 14.400,144.153 14.400 C 143.849 14.400,143.600 14.201,143.600 13.958 C 143.600 13.448,138.949 8.800,138.439 8.800 C 138.251 8.800,137.874 8.530,137.600 8.200 C 137.326 7.870,136.786 7.600,136.400 7.600 C 136.014 7.600,135.474 7.870,135.200 8.200 M93.745 49.400 C 93.618 49.730,93.373 50.000,93.201 50.000 C 92.705 50.000,85.600 57.065,85.600 57.558 C 85.600 57.801,85.330 58.000,85.000 58.000 C 84.670 58.000,84.400 58.270,84.400 58.600 C 84.400 58.930,84.221 59.200,84.002 59.200 C 83.466 59.200,80.000 62.644,80.000 63.177 C 80.000 63.410,79.796 63.600,79.547 63.600 C 79.017 63.600,76.400 66.284,76.400 66.828 C 76.400 67.033,76.227 67.200,76.015 67.200 C 75.804 67.200,74.918 67.920,74.047 68.800 C 73.176 69.680,72.269 70.400,72.031 70.400 C 71.794 70.400,71.600 70.587,71.600 70.816 C 71.600 71.045,70.880 71.937,70.000 72.800 C 69.120 73.663,68.400 74.447,68.400 74.544 C 68.400 74.916,65.616 77.483,65.423 77.289 C 65.311 77.177,65.105 77.381,64.967 77.743 C 64.828 78.104,64.464 78.400,64.157 78.400 C 63.851 78.400,63.600 78.590,63.600 78.823 C 63.600 79.055,63.020 79.775,62.311 80.423 C 61.602 81.070,61.152 81.600,61.311 81.600 C 61.470 81.600,61.240 81.960,60.800 82.400 C 60.360 82.840,59.820 83.200,59.600 83.200 C 59.380 83.200,59.200 83.470,59.200 83.800 C 59.200 84.130,59.022 84.400,58.805 84.400 C 58.196 84.400,56.800 85.715,56.800 86.289 C 56.800 86.570,56.653 86.755,56.473 86.700 C 56.044 86.569,51.200 91.408,51.200 91.968 C 51.200 92.206,50.930 92.400,50.600 92.400 C 50.270 92.400,50.000 92.670,50.000 93.000 C 50.000 93.330,50.270 93.600,50.600 93.600 C 50.930 93.600,51.200 93.330,51.200 93.000 C 51.200 92.670,51.470 92.400,51.800 92.400 C 52.130 92.400,52.400 92.130,52.400 91.800 C 52.400 91.470,52.585 91.200,52.812 91.200 C 53.333 91.200,60.400 84.111,60.400 83.588 C 60.400 83.375,60.595 83.200,60.832 83.200 C 61.070 83.200,62.600 81.865,64.232 80.232 C 65.865 78.600,67.200 77.070,67.200 76.832 C 67.200 76.595,67.380 76.400,67.600 76.400 C 67.820 76.400,68.360 76.040,68.800 75.600 C 69.240 75.160,69.600 74.620,69.600 74.400 C 69.600 74.180,69.771 74.000,69.980 74.000 C 70.481 74.000,75.200 69.288,75.200 68.788 C 75.200 68.574,75.381 68.400,75.601 68.400 C 76.135 68.400,85.600 58.948,85.600 58.415 C 85.600 58.187,85.870 58.000,86.200 58.000 C 86.530 58.000,86.800 57.730,86.800 57.400 C 86.800 57.070,86.999 56.800,87.242 56.800 C 87.781 56.800,92.400 52.135,92.400 51.590 C 92.400 51.375,92.580 51.200,92.800 51.200 C 93.020 51.200,93.560 50.840,94.000 50.400 C 94.440 49.960,94.800 49.420,94.800 49.200 C 94.800 48.578,94.002 48.729,93.745 49.400 M48.400 94.454 C 47.850 95.077,47.175 95.589,46.900 95.593 C 46.625 95.597,46.400 95.870,46.400 96.200 C 46.400 96.530,46.130 96.800,45.800 96.800 C 45.470 96.800,45.200 97.004,45.200 97.254 C 45.200 97.504,44.750 98.125,44.200 98.635 C 43.650 99.145,43.200 99.750,43.200 99.981 C 43.200 100.211,43.057 100.400,42.882 100.400 C 42.708 100.400,41.792 101.120,40.849 102.000 C 39.905 102.880,38.968 103.600,38.766 103.600 C 38.565 103.600,38.400 103.870,38.400 104.200 C 38.400 104.530,38.130 104.800,37.800 104.800 C 37.470 104.800,37.200 104.980,37.200 105.200 C 37.200 105.421,36.480 106.300,35.600 107.154 C 34.720 108.008,34.000 108.907,34.000 109.153 C 34.000 109.399,33.791 109.600,33.536 109.600 C 33.280 109.600,32.560 110.172,31.936 110.872 C 31.311 111.572,30.789 111.977,30.775 111.772 C 30.761 111.567,30.582 111.817,30.378 112.326 C 30.155 112.883,29.821 113.137,29.542 112.964 C 29.243 112.779,29.185 112.851,29.378 113.165 C 29.570 113.474,29.382 113.732,28.868 113.866 C 28.111 114.064,28.051 115.200,28.798 115.200 C 29.249 115.200,32.800 111.635,32.800 111.181 C 32.800 110.972,33.070 110.800,33.400 110.800 C 33.730 110.800,34.000 110.530,34.000 110.200 C 34.000 109.870,34.270 109.600,34.600 109.600 C 34.930 109.600,35.200 109.330,35.200 109.000 C 35.200 108.670,35.383 108.400,35.606 108.400 C 36.137 108.400,42.000 102.537,42.000 102.006 C 42.000 101.783,42.270 101.600,42.600 101.600 C 42.930 101.600,43.200 101.330,43.200 101.000 C 43.200 100.670,43.380 100.400,43.600 100.400 C 44.119 100.400,45.600 98.919,45.600 98.400 C 45.600 98.180,45.766 98.000,45.969 98.000 C 46.450 98.000,48.800 95.650,48.800 95.169 C 48.800 94.966,49.070 94.800,49.400 94.800 C 49.730 94.800,50.000 94.541,50.000 94.224 C 50.000 93.209,49.427 93.292,48.400 94.454 M27.078 115.456 C 26.704 115.829,27.155 116.400,27.824 116.400 C 28.141 116.400,28.400 116.130,28.400 115.800 C 28.400 115.198,27.556 114.978,27.078 115.456 M26.000 116.953 C 26.000 117.258,25.622 117.606,25.160 117.726 C 24.697 117.847,24.438 118.138,24.583 118.373 C 24.978 119.012,26.000 118.887,26.000 118.200 C 26.000 117.870,26.270 117.600,26.600 117.600 C 26.930 117.600,27.200 117.330,27.200 117.000 C 27.200 116.670,26.930 116.400,26.600 116.400 C 26.270 116.400,26.000 116.649,26.000 116.953 M23.100 119.236 C 22.715 119.656,22.400 120.180,22.400 120.400 C 22.400 120.620,22.130 120.800,21.800 120.800 C 21.470 120.800,21.200 121.070,21.200 121.400 C 21.200 121.730,20.930 122.000,20.600 122.000 C 20.270 122.000,20.000 122.167,20.000 122.372 C 20.000 122.919,14.160 128.800,13.616 128.800 C 13.361 128.800,13.272 128.992,13.417 129.227 C 13.562 129.462,13.303 129.753,12.840 129.874 C 12.378 129.994,12.000 130.342,12.000 130.647 C 12.000 130.951,11.730 131.200,11.400 131.200 C 11.070 131.200,10.800 131.404,10.800 131.654 C 10.800 131.904,10.350 132.525,9.800 133.035 C 9.250 133.545,8.800 134.150,8.800 134.381 C 8.800 134.611,8.620 134.800,8.400 134.800 C 8.180 134.800,7.640 135.160,7.200 135.600 C 6.221 136.579,6.075 139.200,7.000 139.200 C 7.373 139.200,7.600 139.578,7.600 140.200 C 7.600 140.822,7.827 141.200,8.200 141.200 C 8.530 141.200,8.800 141.470,8.800 141.800 C 8.800 142.130,9.070 142.400,9.400 142.400 C 9.730 142.400,10.000 142.600,10.000 142.845 C 10.000 143.378,17.085 150.400,17.624 150.400 C 17.831 150.400,18.000 150.586,18.000 150.814 C 18.000 151.354,26.246 159.600,26.786 159.600 C 27.014 159.600,27.200 159.800,27.200 160.044 C 27.200 160.592,34.249 167.600,34.801 167.600 C 35.020 167.600,35.200 167.785,35.200 168.011 C 35.200 168.547,42.253 175.600,42.789 175.600 C 43.015 175.600,43.200 175.870,43.200 176.200 C 43.200 176.530,43.470 176.800,43.800 176.800 C 44.130 176.800,44.400 176.995,44.400 177.232 C 44.400 177.796,50.204 183.600,50.768 183.600 C 51.005 183.600,51.200 183.870,51.200 184.200 C 51.200 184.530,51.470 184.800,51.800 184.800 C 52.130 184.800,52.400 185.000,52.400 185.244 C 52.400 185.792,59.449 192.800,60.001 192.800 C 60.220 192.800,60.400 192.978,60.400 193.195 C 60.400 193.810,61.704 195.183,62.071 194.956 C 62.252 194.844,62.400 194.970,62.400 195.236 C 62.400 195.799,67.448 200.800,68.016 200.800 C 68.227 200.800,68.400 201.070,68.400 201.400 C 68.400 201.730,68.670 202.000,69.000 202.000 C 69.330 202.000,69.600 202.195,69.600 202.432 C 69.600 203.292,75.590 208.889,76.242 208.639 C 76.816 208.419,71.306 202.381,66.045 197.466 C 65.300 196.770,64.189 195.705,63.576 195.100 C 62.963 194.495,62.268 194.000,62.031 194.000 C 61.794 194.000,61.600 193.730,61.600 193.400 C 61.600 193.070,61.330 192.800,61.000 192.800 C 60.670 192.800,60.400 192.626,60.400 192.414 C 60.400 192.090,59.742 191.284,57.687 189.094 C 55.813 187.097,49.425 181.200,49.135 181.200 C 48.925 181.200,48.845 181.051,48.958 180.869 C 49.194 180.487,43.036 174.400,42.414 174.400 C 42.186 174.400,42.000 174.188,42.000 173.929 C 42.000 173.343,29.415 160.800,28.827 160.800 C 28.592 160.800,28.400 160.621,28.400 160.402 C 28.400 160.183,27.320 158.951,26.000 157.663 C 24.680 156.376,23.600 155.014,23.600 154.637 C 23.600 154.261,23.437 154.053,23.239 154.176 C 23.040 154.299,22.005 153.474,20.939 152.343 C 19.872 151.212,18.479 149.817,17.842 149.243 C 14.486 146.219,8.800 140.259,8.800 139.767 C 8.800 139.455,8.530 139.200,8.200 139.200 C 7.780 139.200,7.600 138.776,7.600 137.787 C 7.600 136.901,7.823 136.289,8.200 136.145 C 8.530 136.018,8.800 135.664,8.800 135.357 C 8.800 135.051,9.070 134.800,9.400 134.800 C 9.730 134.800,10.000 134.530,10.000 134.200 C 10.000 133.870,10.270 133.600,10.600 133.600 C 10.930 133.600,11.200 133.330,11.200 133.000 C 11.200 132.670,11.374 132.400,11.586 132.400 C 12.109 132.400,14.400 130.131,14.400 129.613 C 14.400 129.386,14.670 129.200,15.000 129.200 C 15.330 129.200,15.600 128.930,15.600 128.600 C 15.600 128.270,15.774 128.000,15.987 128.000 C 16.490 128.000,19.200 125.290,19.200 124.787 C 19.200 124.574,19.396 124.400,19.636 124.400 C 20.167 124.400,23.600 120.923,23.600 120.385 C 23.600 120.173,23.883 120.000,24.229 120.000 C 24.602 120.000,24.806 119.728,24.729 119.333 C 24.546 118.385,23.913 118.348,23.100 119.236 M76.400 209.400 C 76.400 209.730,76.670 210.000,77.000 210.000 C 77.330 210.000,77.600 210.185,77.600 210.411 C 77.600 210.947,84.653 218.000,85.189 218.000 C 85.415 218.000,85.600 218.270,85.600 218.600 C 85.600 218.930,85.870 219.200,86.200 219.200 C 86.530 219.200,86.800 219.381,86.800 219.603 C 86.800 220.116,92.702 226.000,93.216 226.000 C 93.427 226.000,93.600 226.270,93.600 226.600 C 93.600 226.930,93.870 227.200,94.200 227.200 C 94.530 227.200,94.800 227.481,94.800 227.824 C 94.800 228.167,94.980 228.336,95.200 228.200 C 95.420 228.064,95.600 228.170,95.600 228.436 C 95.600 228.999,100.648 234.000,101.216 234.000 C 101.427 234.000,101.600 234.270,101.600 234.600 C 101.600 234.930,101.870 235.200,102.200 235.200 C 102.530 235.200,102.800 235.470,102.800 235.800 C 102.800 236.130,103.070 236.400,103.400 236.400 C 103.730 236.400,104.000 236.577,104.000 236.793 C 104.000 237.364,108.888 242.000,109.490 242.000 C 109.771 242.000,109.955 242.158,109.900 242.352 C 109.845 242.545,110.295 243.167,110.900 243.733 C 111.505 244.299,112.000 244.846,112.000 244.949 C 112.000 245.304,116.865 250.000,117.232 250.000 C 117.434 250.000,117.600 250.270,117.600 250.600 C 117.600 250.930,117.870 251.200,118.200 251.200 C 118.530 251.200,118.800 251.470,118.800 251.800 C 118.800 252.130,119.070 252.400,119.400 252.400 C 119.730 252.400,120.000 252.670,120.000 253.000 C 120.000 253.330,120.251 253.600,120.557 253.600 C 120.864 253.600,121.222 253.881,121.354 254.225 C 121.486 254.569,121.776 254.739,121.997 254.602 C 122.219 254.465,122.400 254.633,122.400 254.976 C 122.400 255.319,122.535 255.601,122.700 255.602 C 123.311 255.606,125.852 258.245,125.695 258.714 C 125.606 258.981,125.731 259.200,125.973 259.200 C 126.215 259.200,127.202 260.023,128.165 261.029 C 129.182 262.090,130.027 262.681,130.177 262.437 C 130.515 261.891,129.885 260.756,128.832 260.012 C 128.375 259.688,128.000 259.193,128.000 258.912 C 128.000 258.630,127.730 258.400,127.400 258.400 C 127.070 258.400,126.800 258.130,126.800 257.800 C 126.800 257.470,126.530 257.200,126.200 257.200 C 125.870 257.200,125.600 256.930,125.600 256.600 C 125.600 256.270,125.330 256.000,125.000 256.000 C 124.670 256.000,124.400 255.730,124.400 255.400 C 124.400 255.070,124.130 254.800,123.800 254.800 C 123.470 254.800,123.200 254.530,123.200 254.200 C 123.200 253.870,122.970 253.600,122.689 253.600 C 122.408 253.600,121.880 253.285,121.517 252.900 C 121.154 252.515,120.619 251.984,120.328 251.719 C 120.038 251.455,119.588 251.005,119.329 250.719 C 119.070 250.434,118.036 249.480,117.030 248.600 C 116.025 247.720,115.202 246.771,115.201 246.491 C 115.200 246.212,114.750 245.778,114.200 245.527 C 113.650 245.277,113.200 244.910,113.200 244.713 C 113.200 244.515,112.345 243.546,111.300 242.558 C 110.255 241.571,109.220 240.575,109.000 240.345 C 108.780 240.115,107.990 239.358,107.244 238.663 C 106.498 237.969,105.688 237.164,105.444 236.876 C 105.200 236.588,104.228 235.598,103.284 234.676 C 102.340 233.754,99.438 230.885,96.835 228.300 C 94.232 225.715,91.889 223.600,91.628 223.600 C 91.366 223.600,91.249 223.444,91.367 223.254 C 91.598 222.880,86.586 218.000,85.971 218.000 C 85.767 218.000,85.600 217.793,85.600 217.541 C 85.600 216.965,77.402 208.800,76.824 208.800 C 76.591 208.800,76.400 209.070,76.400 209.400 " stroke="none" fill="#6274f6" fill-rule="evenodd"></path><path id="path1" d="M262.607 137.127 C 262.456 137.277,234.275 137.490,199.981 137.600 C 145.245 137.776,137.555 137.873,137.028 138.401 C 136.500 138.929,136.422 146.331,136.386 200.001 C 136.360 237.979,136.197 261.669,135.954 262.773 C 135.339 265.569,137.016 268.115,138.603 266.797 C 138.870 266.576,164.021 266.382,201.310 266.314 C 260.480 266.206,263.607 266.165,264.286 265.485 C 264.942 264.829,265.568 141.170,264.930 138.361 C 264.765 137.636,263.023 136.711,262.607 137.127 " stroke="none" fill="#29282b" fill-rule="evenodd"></path><path id="path2" d="M134.500 9.882 C 134.005 9.978,133.600 10.313,133.600 10.628 C 133.600 10.943,133.330 11.200,133.000 11.200 C 132.670 11.200,132.400 11.393,132.400 11.629 C 132.400 12.182,131.382 13.200,130.829 13.200 C 130.593 13.200,130.400 13.470,130.400 13.800 C 130.400 14.130,130.130 14.400,129.800 14.400 C 129.470 14.400,129.200 14.670,129.200 15.000 C 129.200 15.330,128.930 15.600,128.600 15.600 C 128.270 15.600,128.000 15.870,128.000 16.200 C 128.000 16.530,127.730 16.800,127.400 16.800 C 127.070 16.800,126.800 16.981,126.800 17.202 C 126.800 17.707,103.676 40.800,103.170 40.800 C 102.967 40.800,102.800 40.980,102.800 41.200 C 102.800 41.719,101.319 43.200,100.800 43.200 C 100.580 43.200,100.400 43.399,100.400 43.642 C 100.400 44.396,95.559 48.870,94.982 48.648 C 94.643 48.518,94.520 48.646,94.651 48.989 C 94.871 49.561,93.498 51.200,92.800 51.200 C 92.580 51.200,92.400 51.375,92.400 51.590 C 92.400 52.135,87.781 56.800,87.242 56.800 C 86.999 56.800,86.800 57.070,86.800 57.400 C 86.800 57.730,86.530 58.000,86.200 58.000 C 85.870 58.000,85.600 58.187,85.600 58.415 C 85.600 58.948,76.135 68.400,75.601 68.400 C 75.381 68.400,75.200 68.574,75.200 68.788 C 75.200 69.288,70.481 74.000,69.980 74.000 C 69.771 74.000,69.600 74.180,69.600 74.400 C 69.600 74.620,69.240 75.160,68.800 75.600 C 68.360 76.040,67.820 76.400,67.600 76.400 C 67.380 76.400,67.200 76.595,67.200 76.832 C 67.200 77.070,65.865 78.600,64.232 80.232 C 62.600 81.865,61.070 83.200,60.832 83.200 C 60.595 83.200,60.400 83.375,60.400 83.588 C 60.400 84.111,53.333 91.200,52.812 91.200 C 52.585 91.200,52.400 91.470,52.400 91.800 C 52.400 92.130,52.130 92.400,51.800 92.400 C 51.470 92.400,51.200 92.691,51.200 93.047 C 51.200 93.482,50.955 93.629,50.451 93.497 C 49.874 93.347,49.747 93.474,49.897 94.051 C 50.029 94.555,49.882 94.800,49.447 94.800 C 49.091 94.800,48.800 94.966,48.800 95.169 C 48.800 95.650,46.450 98.000,45.969 98.000 C 45.766 98.000,45.600 98.180,45.600 98.400 C 45.600 98.919,44.119 100.400,43.600 100.400 C 43.380 100.400,43.200 100.670,43.200 101.000 C 43.200 101.330,42.930 101.600,42.600 101.600 C 42.270 101.600,42.000 101.783,42.000 102.006 C 42.000 102.537,36.137 108.400,35.606 108.400 C 35.383 108.400,35.200 108.670,35.200 109.000 C 35.200 109.330,34.930 109.600,34.600 109.600 C 34.270 109.600,34.000 109.870,34.000 110.200 C 34.000 110.530,33.730 110.800,33.400 110.800 C 33.070 110.800,32.800 110.972,32.800 111.181 C 32.800 112.381,28.640 115.598,28.249 114.700 C 28.130 114.425,28.141 114.723,28.275 115.362 C 28.488 116.382,28.419 116.498,27.710 116.313 C 27.071 116.146,26.943 116.259,27.097 116.851 C 27.229 117.355,27.082 117.600,26.647 117.600 C 26.291 117.600,26.000 117.891,26.000 118.247 C 26.000 118.682,25.755 118.829,25.251 118.697 C 24.674 118.547,24.547 118.674,24.697 119.251 C 24.829 119.755,24.682 120.000,24.247 120.000 C 23.891 120.000,23.600 120.173,23.600 120.385 C 23.600 120.923,20.167 124.400,19.636 124.400 C 19.396 124.400,19.200 124.574,19.200 124.787 C 19.200 124.999,18.564 125.809,17.787 126.587 C 17.009 127.364,16.199 128.000,15.987 128.000 C 15.774 128.000,15.600 128.270,15.600 128.600 C 15.600 128.930,15.330 129.200,15.000 129.200 C 14.670 129.200,14.400 129.386,14.400 129.613 C 14.400 130.131,12.109 132.400,11.586 132.400 C 11.374 132.400,11.200 132.670,11.200 133.000 C 11.200 133.330,10.930 133.600,10.600 133.600 C 10.270 133.600,10.000 133.870,10.000 134.200 C 10.000 134.530,9.730 134.800,9.400 134.800 C 9.070 134.800,8.800 135.051,8.800 135.357 C 8.800 135.664,8.530 136.018,8.200 136.145 C 7.371 136.463,7.371 139.200,8.200 139.200 C 8.530 139.200,8.800 139.455,8.800 139.767 C 8.800 140.259,14.486 146.219,17.842 149.243 C 18.479 149.817,19.872 151.212,20.939 152.343 C 22.005 153.474,23.040 154.299,23.239 154.176 C 23.437 154.053,23.600 154.261,23.600 154.637 C 23.600 155.014,24.680 156.376,26.000 157.663 C 27.320 158.951,28.400 160.183,28.400 160.402 C 28.400 160.621,28.592 160.800,28.827 160.800 C 29.415 160.800,42.000 173.343,42.000 173.929 C 42.000 174.188,42.186 174.400,42.414 174.400 C 43.036 174.400,49.194 180.487,48.958 180.869 C 48.845 181.051,48.925 181.200,49.135 181.200 C 49.425 181.200,55.813 187.097,57.687 189.094 C 59.742 191.284,60.400 192.090,60.400 192.414 C 60.400 192.626,60.670 192.800,61.000 192.800 C 61.330 192.800,61.600 193.070,61.600 193.400 C 61.600 193.730,61.794 194.000,62.031 194.000 C 62.268 194.000,62.963 194.495,63.576 195.100 C 64.189 195.705,65.300 196.768,66.045 197.463 C 69.256 200.457,76.591 208.186,76.500 208.479 C 76.445 208.656,76.591 208.800,76.824 208.800 C 77.402 208.800,85.600 216.965,85.600 217.541 C 85.600 217.793,85.767 218.000,85.971 218.000 C 86.586 218.000,91.598 222.880,91.367 223.254 C 91.249 223.444,91.366 223.600,91.628 223.600 C 91.889 223.600,94.232 225.715,96.835 228.300 C 99.438 230.885,102.340 233.754,103.284 234.676 C 104.228 235.598,105.200 236.588,105.444 236.876 C 105.688 237.164,106.498 237.969,107.244 238.663 C 107.990 239.358,108.780 240.115,109.000 240.345 C 109.220 240.575,110.255 241.571,111.300 242.558 C 112.345 243.546,113.200 244.515,113.200 244.713 C 113.200 244.910,113.650 245.277,114.200 245.527 C 114.750 245.778,115.200 246.212,115.201 246.491 C 115.202 246.771,116.025 247.720,117.030 248.600 C 118.036 249.480,119.070 250.434,119.329 250.719 C 119.588 251.005,120.038 251.455,120.328 251.719 C 120.619 251.984,121.154 252.515,121.517 252.900 C 121.880 253.285,122.408 253.600,122.689 253.600 C 122.970 253.600,123.200 253.870,123.200 254.200 C 123.200 254.530,123.470 254.800,123.800 254.800 C 124.130 254.800,124.400 255.070,124.400 255.400 C 124.400 255.730,124.670 256.000,125.000 256.000 C 125.330 256.000,125.600 256.270,125.600 256.600 C 125.600 256.930,125.870 257.200,126.200 257.200 C 126.530 257.200,126.800 257.470,126.800 257.800 C 126.800 258.130,127.070 258.400,127.400 258.400 C 127.730 258.400,128.000 258.586,128.000 258.813 C 128.000 259.041,128.556 259.770,129.235 260.434 C 129.915 261.099,130.373 261.892,130.255 262.200 C 130.127 262.535,130.239 262.683,130.534 262.570 C 130.806 262.466,131.419 262.745,131.897 263.190 C 132.375 263.636,132.855 264.000,132.963 264.000 C 133.071 264.000,133.644 264.450,134.238 265.000 C 135.639 266.299,135.843 266.263,135.945 264.700 C 135.992 263.985,136.121 235.410,136.232 201.200 C 136.409 146.757,136.508 138.925,137.031 138.400 C 137.555 137.874,145.324 137.770,200.114 137.555 C 265.481 137.298,263.747 137.323,263.411 136.633 C 263.295 136.395,263.089 135.885,262.954 135.500 C 262.818 135.115,262.458 134.800,262.153 134.800 C 261.849 134.800,261.600 134.599,261.600 134.353 C 261.600 134.107,260.880 133.208,260.000 132.354 C 259.120 131.500,258.400 130.621,258.400 130.400 C 258.400 130.180,258.130 130.000,257.800 130.000 C 257.470 130.000,257.200 129.730,257.200 129.400 C 257.200 129.070,257.027 128.800,256.815 128.800 C 256.277 128.800,252.800 125.367,252.800 124.836 C 252.800 124.596,252.530 124.400,252.200 124.400 C 251.870 124.400,251.600 124.130,251.600 123.800 C 251.600 123.470,251.330 123.200,251.000 123.200 C 250.670 123.200,250.400 122.930,250.400 122.600 C 250.400 122.270,250.130 122.000,249.800 122.000 C 249.470 122.000,249.200 121.730,249.200 121.400 C 249.200 121.070,248.930 120.800,248.600 120.800 C 248.270 120.800,248.000 120.530,248.000 120.200 C 248.000 119.870,247.773 119.600,247.496 119.600 C 247.218 119.600,246.543 119.034,245.996 118.342 C 245.448 117.651,244.700 116.766,244.333 116.376 C 243.967 115.986,243.772 115.562,243.900 115.433 C 244.028 115.305,243.743 115.200,243.267 115.200 C 242.763 115.200,242.400 114.949,242.400 114.600 C 242.400 114.270,242.130 114.000,241.800 114.000 C 241.470 114.000,241.200 113.730,241.200 113.400 C 241.200 113.070,241.020 112.800,240.800 112.800 C 240.580 112.800,239.320 111.720,238.000 110.400 C 236.680 109.080,235.600 107.820,235.600 107.600 C 235.600 107.380,235.330 107.200,235.000 107.200 C 234.670 107.200,234.400 106.930,234.400 106.600 C 234.400 106.270,234.130 106.000,233.800 106.000 C 233.470 106.000,233.200 105.730,233.200 105.400 C 233.200 105.070,232.930 104.800,232.600 104.800 C 232.270 104.800,232.000 104.530,232.000 104.200 C 232.000 103.870,231.730 103.600,231.400 103.600 C 231.070 103.600,230.800 103.330,230.800 103.000 C 230.800 102.670,230.614 102.400,230.387 102.400 C 229.869 102.400,227.600 100.109,227.600 99.586 C 227.600 99.374,227.330 99.200,227.000 99.200 C 226.670 99.200,226.400 98.930,226.400 98.600 C 226.400 98.270,226.130 98.000,225.800 98.000 C 225.470 98.000,225.200 97.730,225.200 97.400 C 225.200 97.070,224.930 96.800,224.600 96.800 C 224.270 96.800,224.000 96.530,224.000 96.200 C 224.000 95.870,223.730 95.600,223.400 95.600 C 223.070 95.600,222.800 95.330,222.800 95.000 C 222.800 94.670,222.622 94.400,222.405 94.400 C 221.896 94.400,210.400 82.894,210.400 82.384 C 210.400 82.173,210.130 82.000,209.800 82.000 C 209.470 82.000,209.200 81.730,209.200 81.400 C 209.200 81.070,208.930 80.800,208.600 80.800 C 208.270 80.800,208.000 80.530,208.000 80.200 C 208.000 79.870,207.829 79.600,207.619 79.600 C 207.243 79.600,201.200 73.737,201.200 73.372 C 201.200 73.268,198.815 70.764,195.900 67.808 C 184.559 56.308,182.603 54.253,182.700 53.932 C 182.755 53.749,182.539 53.600,182.220 53.600 C 181.901 53.600,181.496 53.375,181.320 53.100 C 181.144 52.825,179.976 51.655,178.724 50.500 C 177.472 49.345,176.544 48.400,176.662 48.400 C 176.781 48.400,176.187 47.815,175.344 47.100 C 173.867 45.847,172.370 44.357,165.340 37.145 C 163.546 35.305,159.991 31.748,157.440 29.240 C 154.888 26.733,152.800 24.543,152.800 24.374 C 152.800 24.205,152.629 24.007,152.421 23.933 C 152.027 23.795,146.114 18.021,141.600 13.368 C 139.173 10.866,137.121 9.526,135.913 9.654 C 135.631 9.684,134.995 9.787,134.500 9.882 " stroke="none" fill="#f3643b" fill-rule="evenodd"></path></g></svg>