<svg id="svg" version="1.1" xmlns="http://www.w3.org/2000/svg" xmlns:xlink="http://www.w3.org/1999/xlink" width="400" height="400" viewBox="0, 0, 400,400"><g id="svgg"><path id="path0" d="M198.900 0.272 C 197.965 0.368,197.200 0.616,197.200 0.823 C 197.200 1.030,196.874 1.200,196.476 1.200 C 196.079 1.200,195.404 1.464,194.976 1.787 C 194.549 2.110,193.795 2.380,193.300 2.387 C 192.805 2.394,192.400 2.580,192.400 2.800 C 192.400 3.020,192.058 3.200,191.641 3.200 C 190.702 3.200,186.362 5.427,185.756 6.219 C 185.512 6.539,184.916 6.800,184.432 6.800 C 183.948 6.800,183.664 6.980,183.800 7.200 C 183.936 7.420,183.782 7.600,183.457 7.600 C 183.132 7.600,182.807 7.766,182.733 7.970 C 182.660 8.173,182.343 8.398,182.028 8.470 C 181.713 8.541,180.921 9.095,180.268 9.700 C 179.616 10.305,178.956 10.800,178.802 10.800 C 178.648 10.800,178.155 11.115,177.707 11.500 C 177.258 11.885,176.209 12.740,175.376 13.400 C 174.543 14.060,172.441 15.995,170.706 17.700 C 168.971 19.405,167.382 20.800,167.176 20.800 C 166.969 20.800,166.800 20.935,166.799 21.100 C 166.799 21.265,166.246 22.030,165.571 22.800 C 164.896 23.570,163.862 24.827,163.272 25.593 C 162.682 26.359,161.435 27.759,160.500 28.703 C 159.565 29.648,158.800 30.598,158.800 30.814 C 158.800 31.030,158.260 31.772,157.600 32.463 C 156.940 33.154,156.400 33.881,156.400 34.078 C 156.400 34.276,155.986 34.835,155.480 35.319 C 154.974 35.804,154.168 36.878,153.689 37.707 C 153.211 38.535,152.631 39.435,152.402 39.707 C 150.492 41.963,150.001 42.681,150.000 43.212 C 150.000 43.548,149.640 44.083,149.200 44.400 C 148.760 44.717,148.400 45.214,148.400 45.505 C 148.400 45.796,148.046 46.413,147.614 46.877 C 147.181 47.341,146.902 47.841,146.992 47.988 C 147.083 48.134,146.807 48.507,146.379 48.815 C 145.950 49.124,145.600 49.697,145.600 50.088 C 145.600 50.480,145.420 50.800,145.200 50.800 C 144.980 50.800,144.800 51.098,144.800 51.462 C 144.800 51.826,144.350 52.714,143.800 53.436 C 143.250 54.157,142.800 54.939,142.800 55.173 C 142.800 55.408,142.609 55.600,142.376 55.600 C 142.143 55.600,142.055 55.765,142.180 55.968 C 142.305 56.170,142.136 56.607,141.804 56.939 C 141.472 57.271,141.200 57.826,141.200 58.171 C 141.200 58.517,141.020 58.800,140.800 58.800 C 140.580 58.800,140.400 59.250,140.400 59.800 C 140.400 60.350,140.265 60.801,140.100 60.803 C 139.698 60.806,138.400 63.119,138.400 63.832 C 138.400 64.145,138.220 64.400,138.000 64.400 C 137.780 64.400,137.600 64.653,137.600 64.962 C 137.600 65.271,137.260 66.216,136.844 67.062 C 134.372 72.094,134.000 72.927,134.000 73.437 C 134.000 73.747,133.820 74.000,133.600 74.000 C 133.380 74.000,133.200 74.450,133.200 75.000 C 133.200 75.550,133.059 76.000,132.887 76.000 C 132.715 76.000,132.534 76.495,132.484 77.100 C 132.434 77.705,132.215 78.260,131.997 78.333 C 131.778 78.407,131.600 78.707,131.600 79.001 C 131.600 79.295,131.347 80.045,131.037 80.668 C 130.114 82.525,129.639 83.752,129.516 84.600 C 129.452 85.040,129.309 85.490,129.198 85.600 C 128.860 85.934,128.000 88.612,128.000 89.328 C 128.000 89.698,127.820 90.000,127.600 90.000 C 127.380 90.000,127.200 90.630,127.200 91.400 C 127.200 92.170,127.053 92.800,126.873 92.800 C 126.478 92.800,125.200 96.722,125.200 97.935 C 125.200 98.411,125.020 98.800,124.800 98.800 C 124.580 98.800,124.400 99.430,124.400 100.200 C 124.400 100.970,124.220 101.600,124.000 101.600 C 123.780 101.600,123.600 102.305,123.600 103.167 C 123.600 104.028,123.406 104.798,123.169 104.877 C 122.931 104.956,122.672 105.716,122.593 106.566 C 122.515 107.415,122.259 108.301,122.025 108.535 C 121.791 108.769,121.600 109.633,121.600 110.456 C 121.600 111.279,121.420 112.064,121.200 112.200 C 120.980 112.336,120.800 113.146,120.800 114.000 C 120.800 114.854,120.620 115.664,120.400 115.800 C 120.180 115.936,120.000 116.926,120.000 118.000 C 120.000 119.074,119.820 120.064,119.600 120.200 C 119.380 120.336,119.200 121.436,119.200 122.643 C 119.200 123.851,118.957 125.326,118.661 125.920 C 118.364 126.514,118.084 127.990,118.038 129.200 C 117.992 130.410,117.785 131.571,117.577 131.780 C 117.370 131.989,117.200 133.729,117.200 135.647 C 117.200 137.564,117.027 139.193,116.815 139.267 C 116.594 139.343,116.409 142.076,116.379 145.700 C 116.350 149.165,116.185 152.000,116.012 152.000 C 115.839 152.000,115.669 154.700,115.634 158.000 C 115.595 161.701,115.721 164.000,115.963 164.000 C 116.188 164.000,116.443 166.171,116.561 169.100 C 116.853 176.360,117.206 180.142,117.631 180.580 C 117.834 180.789,118.000 181.721,118.000 182.651 C 118.000 183.622,118.256 184.599,118.600 184.943 C 118.956 185.299,119.200 186.277,119.200 187.348 C 119.200 188.341,119.380 189.264,119.600 189.400 C 119.820 189.536,120.000 190.269,120.000 191.029 C 120.000 191.789,120.162 192.723,120.361 193.105 C 120.560 193.487,120.917 194.520,121.156 195.400 C 122.166 199.122,122.915 201.200,123.246 201.200 C 123.441 201.200,123.600 201.830,123.600 202.600 C 123.600 203.370,123.757 204.000,123.948 204.000 C 124.139 204.000,124.526 204.855,124.807 205.900 C 125.088 206.945,125.471 207.971,125.659 208.180 C 125.847 208.389,126.000 208.807,126.000 209.109 C 126.000 209.410,126.270 209.927,126.600 210.257 C 126.930 210.587,127.200 211.294,127.200 211.829 C 127.200 212.363,127.380 212.800,127.600 212.800 C 127.820 212.800,128.000 213.160,128.000 213.600 C 128.000 214.040,128.180 214.400,128.400 214.400 C 128.620 214.400,128.800 214.760,128.800 215.200 C 128.800 215.640,128.980 216.000,129.200 216.000 C 129.420 216.000,129.600 216.450,129.600 217.000 C 129.600 217.550,129.780 218.000,130.000 218.000 C 130.220 218.000,130.400 218.341,130.400 218.757 C 130.400 219.174,130.670 219.618,131.000 219.745 C 131.330 219.871,131.600 220.341,131.600 220.787 C 131.600 221.234,131.780 221.600,132.000 221.600 C 132.220 221.600,132.400 221.960,132.400 222.400 C 132.400 222.840,132.580 223.200,132.800 223.200 C 133.020 223.200,133.200 223.465,133.200 223.788 C 133.200 224.446,134.581 227.061,135.441 228.031 C 135.748 228.379,136.000 228.874,136.000 229.131 C 136.000 229.389,136.146 229.600,136.325 229.600 C 136.504 229.600,136.898 230.230,137.200 231.000 C 137.502 231.770,137.896 232.400,138.075 232.400 C 138.254 232.400,138.400 232.683,138.400 233.029 C 138.400 233.374,138.625 233.908,138.900 234.215 C 140.127 235.583,140.400 236.000,140.400 236.508 C 140.400 236.805,140.756 237.431,141.191 237.899 C 141.627 238.366,142.032 238.978,142.091 239.259 C 142.151 239.540,142.605 240.225,143.100 240.781 C 143.595 241.337,144.000 242.019,144.000 242.296 C 144.000 242.573,144.136 242.800,144.302 242.800 C 144.469 242.800,144.864 243.385,145.180 244.100 C 145.797 245.494,146.098 245.930,147.500 247.456 C 147.995 247.995,148.400 248.664,148.400 248.943 C 148.400 249.221,148.760 249.836,149.200 250.308 C 149.640 250.780,150.000 251.292,150.000 251.446 C 150.000 251.599,150.450 252.314,151.000 253.036 C 151.550 253.757,152.000 254.499,152.000 254.685 C 152.000 254.871,152.360 255.283,152.800 255.600 C 153.240 255.917,153.604 256.452,153.609 256.788 C 153.614 257.125,153.970 257.850,154.400 258.400 C 154.830 258.950,155.186 259.625,155.191 259.900 C 155.196 260.175,155.470 260.400,155.800 260.400 C 156.139 260.400,156.400 260.758,156.400 261.224 C 156.400 261.677,156.580 261.936,156.800 261.800 C 157.020 261.664,157.200 261.923,157.200 262.376 C 157.200 262.829,157.380 263.200,157.600 263.200 C 157.820 263.200,158.000 263.470,158.000 263.800 C 158.000 264.130,158.180 264.400,158.400 264.400 C 158.620 264.400,158.800 264.670,158.800 265.000 C 158.800 265.330,158.980 265.600,159.200 265.600 C 159.420 265.600,159.600 265.862,159.600 266.182 C 159.600 266.502,160.050 267.214,160.600 267.764 C 161.150 268.314,161.600 269.042,161.600 269.382 C 161.600 269.722,161.746 270.000,161.925 270.000 C 162.104 270.000,162.498 270.630,162.800 271.400 C 163.102 272.170,163.455 272.800,163.584 272.800 C 163.713 272.800,164.157 273.430,164.572 274.200 C 164.987 274.970,165.478 275.600,165.663 275.600 C 165.848 275.600,166.000 275.960,166.000 276.400 C 166.000 276.840,166.180 277.200,166.400 277.200 C 166.620 277.200,166.800 277.476,166.800 277.814 C 166.800 278.481,167.778 280.141,168.897 281.375 C 169.360 281.887,169.600 282.799,169.600 284.052 C 169.600 285.097,169.780 286.064,170.000 286.200 C 170.220 286.336,170.400 287.236,170.400 288.200 C 170.400 289.164,170.580 290.064,170.800 290.200 C 171.020 290.336,171.200 291.326,171.200 292.400 C 171.200 293.474,171.380 294.464,171.600 294.600 C 171.820 294.736,172.000 295.612,172.000 296.547 C 172.000 297.482,172.264 298.596,172.587 299.024 C 172.910 299.451,173.180 300.666,173.187 301.724 C 173.195 302.901,173.355 303.551,173.600 303.400 C 173.847 303.248,174.000 303.931,174.000 305.182 C 174.000 306.298,174.158 307.523,174.351 307.905 C 175.309 309.799,176.000 311.712,176.000 312.467 C 176.000 312.929,176.167 313.958,176.372 314.754 C 176.576 315.549,176.952 317.280,177.207 318.600 C 177.650 320.898,178.454 324.789,179.190 328.200 C 179.380 329.080,179.743 330.880,179.997 332.200 C 180.252 333.520,180.618 335.230,180.811 336.000 C 181.003 336.770,181.435 338.840,181.770 340.600 C 182.104 342.360,182.658 345.060,183.001 346.600 C 183.343 348.140,183.815 350.390,184.049 351.600 C 184.283 352.810,184.638 354.610,184.839 355.600 C 185.039 356.590,185.567 359.740,186.012 362.600 C 188.000 375.376,191.146 379.997,199.800 382.860 C 202.036 383.599,214.358 383.595,216.800 382.854 C 224.284 380.582,228.510 375.287,229.985 366.333 C 231.040 359.931,231.712 356.065,232.042 354.500 C 232.239 353.565,232.557 352.035,232.750 351.100 C 232.942 350.165,233.595 347.060,234.199 344.200 C 234.804 341.340,235.448 338.190,235.631 337.200 C 236.104 334.638,236.546 332.489,237.772 326.800 C 238.365 324.050,239.028 320.900,239.246 319.800 C 239.463 318.700,239.804 316.990,240.002 316.000 C 240.201 315.010,240.522 313.355,240.715 312.321 C 240.908 311.288,241.269 310.199,241.515 309.902 C 241.762 309.605,242.009 308.695,242.064 307.881 C 242.119 307.066,242.307 306.400,242.482 306.400 C 242.657 306.400,242.800 305.590,242.800 304.600 C 242.800 303.610,242.946 302.800,243.125 302.800 C 243.304 302.800,243.494 301.961,243.547 300.937 C 243.600 299.912,243.904 298.702,244.222 298.248 C 244.540 297.794,244.800 296.652,244.800 295.711 C 244.800 294.770,244.980 294.000,245.200 294.000 C 245.420 294.000,245.600 293.010,245.600 291.800 C 245.600 290.590,245.780 289.600,246.000 289.600 C 246.220 289.600,246.400 288.711,246.400 287.624 C 246.400 286.537,246.580 285.536,246.800 285.400 C 247.020 285.264,247.200 284.561,247.200 283.838 C 247.200 282.510,248.213 280.000,248.749 280.000 C 248.909 280.000,249.267 279.370,249.546 278.600 C 249.824 277.830,250.220 277.200,250.426 277.200 C 250.632 277.200,250.800 276.840,250.800 276.400 C 250.800 275.960,250.980 275.600,251.200 275.600 C 251.420 275.600,251.600 275.408,251.600 275.173 C 251.600 274.939,252.050 274.157,252.600 273.436 C 253.150 272.714,253.600 271.916,253.600 271.662 C 253.600 271.408,253.780 271.200,254.000 271.200 C 254.220 271.200,254.400 270.930,254.400 270.600 C 254.400 270.270,254.580 270.000,254.800 270.000 C 255.020 270.000,255.200 269.640,255.200 269.200 C 255.200 268.760,255.380 268.400,255.600 268.400 C 255.820 268.400,256.000 268.111,256.000 267.758 C 256.000 267.404,256.450 266.761,257.000 266.329 C 257.550 265.896,258.000 265.235,258.000 264.859 C 258.000 264.484,258.360 263.917,258.800 263.600 C 259.240 263.283,259.600 262.703,259.600 262.312 C 259.600 261.920,259.780 261.600,260.000 261.600 C 260.220 261.600,260.400 261.345,260.400 261.033 C 260.400 260.722,260.535 260.407,260.700 260.333 C 261.115 260.149,263.200 256.903,263.200 256.442 C 263.200 256.236,263.335 256.007,263.500 255.933 C 263.962 255.728,265.954 252.964,266.084 252.347 C 266.148 252.046,266.515 251.509,266.900 251.153 C 267.285 250.797,267.600 250.212,267.600 249.853 C 267.600 249.494,267.780 249.200,268.000 249.200 C 268.220 249.200,268.400 248.949,268.400 248.643 C 268.400 248.336,268.670 247.982,269.000 247.855 C 269.330 247.729,269.600 247.349,269.600 247.013 C 269.600 246.676,269.780 246.400,270.000 246.400 C 270.220 246.400,270.400 246.130,270.400 245.800 C 270.400 245.470,270.580 245.200,270.800 245.200 C 271.020 245.200,271.200 244.880,271.200 244.488 C 271.200 244.097,271.550 243.524,271.979 243.215 C 272.407 242.907,272.682 242.533,272.591 242.385 C 272.500 242.237,272.959 241.518,273.612 240.786 C 274.266 240.055,274.800 239.218,274.800 238.928 C 274.800 238.638,274.980 238.400,275.200 238.400 C 275.420 238.400,275.600 238.085,275.600 237.700 C 275.601 237.092,276.056 236.410,277.992 234.117 C 278.216 233.851,278.400 233.356,278.400 233.017 C 278.400 232.678,278.580 232.400,278.800 232.400 C 279.020 232.400,279.200 232.040,279.200 231.600 C 279.200 231.160,279.380 230.800,279.600 230.800 C 279.820 230.800,280.000 230.530,280.000 230.200 C 280.000 229.870,280.180 229.600,280.400 229.600 C 280.620 229.600,280.800 229.240,280.800 228.800 C 280.800 228.360,280.980 228.000,281.200 228.000 C 281.420 228.000,281.600 227.752,281.600 227.449 C 281.600 227.146,281.870 226.674,282.200 226.400 C 282.530 226.126,282.800 225.564,282.800 225.151 C 282.800 224.738,282.980 224.400,283.200 224.400 C 283.420 224.400,283.600 224.130,283.600 223.800 C 283.600 223.470,283.780 223.200,284.000 223.200 C 284.220 223.200,284.400 222.840,284.400 222.400 C 284.400 221.960,284.580 221.600,284.800 221.600 C 285.020 221.600,285.200 221.251,285.200 220.824 C 285.200 220.397,285.369 219.943,285.575 219.816 C 286.067 219.512,287.200 217.226,287.200 216.539 C 287.200 216.242,287.380 216.000,287.600 216.000 C 287.820 216.000,288.000 215.449,288.000 214.776 C 288.000 214.063,288.167 213.656,288.400 213.800 C 288.620 213.936,288.800 213.787,288.800 213.469 C 288.800 213.151,289.061 212.389,289.380 211.774 C 289.698 211.160,289.879 210.528,289.782 210.371 C 289.684 210.213,289.874 209.981,290.202 209.854 C 290.531 209.728,290.800 209.270,290.800 208.836 C 290.800 208.402,290.980 207.936,291.200 207.800 C 291.420 207.664,291.600 207.113,291.600 206.576 C 291.600 206.039,291.780 205.600,292.000 205.600 C 292.220 205.600,292.400 205.161,292.400 204.624 C 292.400 204.087,292.580 203.536,292.800 203.400 C 293.020 203.264,293.200 202.713,293.200 202.176 C 293.200 201.639,293.346 201.200,293.524 201.200 C 293.703 201.200,294.164 200.075,294.550 198.700 C 294.937 197.325,295.421 195.887,295.626 195.505 C 295.832 195.123,296.000 194.268,296.000 193.605 C 296.000 192.942,296.180 192.400,296.400 192.400 C 296.620 192.400,296.800 191.590,296.800 190.600 C 296.800 189.610,296.980 188.800,297.200 188.800 C 297.420 188.800,297.600 188.026,297.600 187.080 C 297.600 186.134,297.803 185.157,298.052 184.908 C 298.301 184.659,298.587 183.409,298.688 182.130 C 298.789 180.850,299.007 179.713,299.172 179.602 C 299.338 179.491,299.514 178.140,299.564 176.600 C 299.614 175.060,299.823 173.629,300.027 173.420 C 300.549 172.888,300.522 140.923,300.000 140.600 C 299.780 140.464,299.600 138.754,299.600 136.800 C 299.600 134.846,299.420 133.136,299.200 133.000 C 298.980 132.864,298.800 131.525,298.800 130.025 C 298.800 128.089,298.626 127.154,298.200 126.800 C 297.783 126.454,297.600 125.533,297.600 123.775 C 297.600 122.385,297.420 121.136,297.200 121.000 C 296.980 120.864,296.800 119.874,296.800 118.800 C 296.800 117.726,296.620 116.736,296.400 116.600 C 296.180 116.464,296.000 115.553,296.000 114.576 C 296.000 113.599,295.838 112.800,295.640 112.800 C 295.442 112.800,295.189 112.035,295.077 111.100 C 294.739 108.268,294.012 105.408,293.594 105.267 C 293.377 105.193,293.200 104.518,293.200 103.767 C 293.200 103.015,293.020 102.400,292.800 102.400 C 292.580 102.400,292.400 101.680,292.400 100.800 C 292.400 99.920,292.220 99.200,292.000 99.200 C 291.780 99.200,291.600 98.581,291.600 97.824 C 291.600 97.067,291.420 96.336,291.200 96.200 C 290.980 96.064,290.800 95.423,290.800 94.776 C 290.800 94.129,290.640 93.600,290.445 93.600 C 290.249 93.600,289.971 92.970,289.826 92.200 C 289.682 91.430,289.392 90.800,289.182 90.800 C 288.972 90.800,288.800 90.170,288.800 89.400 C 288.800 88.630,288.620 88.000,288.400 88.000 C 288.180 88.000,288.000 87.460,288.000 86.800 C 288.000 86.140,287.820 85.600,287.600 85.600 C 287.380 85.600,287.197 85.285,287.194 84.900 C 287.184 83.696,286.067 80.995,285.623 81.100 C 285.267 81.184,284.987 79.752,285.153 78.700 C 285.179 78.535,285.020 78.400,284.800 78.400 C 284.580 78.400,284.400 78.051,284.400 77.624 C 284.400 77.197,284.220 76.736,284.000 76.600 C 283.780 76.464,283.600 75.924,283.600 75.400 C 283.600 74.876,283.420 74.336,283.200 74.200 C 282.980 74.064,282.800 73.603,282.800 73.176 C 282.800 72.749,282.620 72.400,282.400 72.400 C 282.180 72.400,282.000 72.034,282.000 71.587 C 282.000 71.141,281.730 70.671,281.400 70.545 C 281.070 70.418,280.800 70.010,280.800 69.637 C 280.800 69.265,280.657 68.789,280.482 68.580 C 280.307 68.371,279.924 67.480,279.632 66.600 C 279.340 65.720,278.846 64.708,278.534 64.350 C 278.222 63.993,278.006 63.543,278.053 63.350 C 278.201 62.752,277.102 60.813,276.742 61.036 C 276.554 61.152,276.400 60.888,276.400 60.448 C 276.400 59.606,274.222 55.372,273.326 54.471 C 273.037 54.181,272.800 53.686,272.800 53.371 C 272.800 53.057,272.620 52.800,272.400 52.800 C 272.180 52.800,272.000 52.511,272.000 52.158 C 272.000 51.805,271.477 50.742,270.839 49.796 C 270.200 48.849,269.558 47.698,269.412 47.238 C 269.266 46.777,268.978 46.400,268.773 46.400 C 268.568 46.400,268.400 46.130,268.400 45.800 C 268.400 45.470,268.220 45.200,268.000 45.200 C 267.780 45.200,267.600 44.930,267.600 44.600 C 267.600 44.270,267.420 44.000,267.200 44.000 C 266.980 44.000,266.800 43.640,266.800 43.200 C 266.800 42.760,266.620 42.400,266.400 42.400 C 266.180 42.400,266.000 42.130,266.000 41.800 C 266.000 41.470,265.719 41.200,265.376 41.200 C 265.033 41.200,264.864 41.020,265.000 40.800 C 265.136 40.580,265.046 40.400,264.800 40.400 C 264.554 40.400,264.464 40.220,264.600 40.000 C 264.736 39.780,264.657 39.600,264.424 39.600 C 264.191 39.600,264.000 39.370,264.000 39.088 C 264.000 38.807,263.640 38.317,263.200 38.000 C 262.760 37.683,262.400 37.118,262.400 36.745 C 262.400 36.372,262.265 36.007,262.100 35.933 C 261.935 35.860,261.083 34.900,260.207 33.800 C 259.331 32.700,258.476 31.740,258.307 31.667 C 258.138 31.593,258.000 31.273,258.000 30.954 C 258.000 30.636,257.730 30.271,257.400 30.145 C 257.070 30.018,256.800 29.736,256.800 29.518 C 256.800 29.299,256.260 28.617,255.600 28.000 C 254.940 27.383,254.400 26.747,254.400 26.585 C 254.400 26.424,253.950 25.875,253.400 25.365 C 252.850 24.855,252.400 24.250,252.400 24.019 C 252.400 23.789,252.100 23.600,251.733 23.600 C 251.367 23.600,251.184 23.483,251.328 23.339 C 251.615 23.052,244.290 15.600,243.721 15.600 C 243.526 15.600,242.728 14.925,241.948 14.100 C 240.198 12.250,238.914 11.200,238.403 11.200 C 238.189 11.200,237.366 10.570,236.573 9.800 C 235.780 9.030,234.959 8.400,234.749 8.400 C 234.539 8.400,233.980 8.040,233.508 7.600 C 233.036 7.160,232.400 6.800,232.096 6.800 C 231.792 6.800,231.292 6.575,230.985 6.300 C 229.375 4.856,227.820 4.000,226.805 4.000 C 226.362 4.000,226.000 3.820,226.000 3.600 C 226.000 3.380,225.640 3.200,225.200 3.200 C 224.760 3.200,224.400 3.020,224.400 2.800 C 224.400 2.580,223.849 2.400,223.176 2.400 C 222.487 2.400,222.058 2.230,222.193 2.012 C 222.325 1.798,221.930 1.517,221.316 1.388 C 220.702 1.258,219.840 0.943,219.400 0.689 C 218.599 0.225,202.550 -0.101,198.900 0.272 M216.708 25.100 L 216.600 33.400 208.400 33.400 L 200.200 33.400 200.092 25.100 L 199.984 16.800 208.400 16.800 L 216.816 16.800 216.708 25.100 M216.600 79.200 L 216.600 108.200 208.400 108.200 L 200.200 108.200 200.097 79.092 L 199.995 49.984 208.297 50.092 L 216.600 50.200 216.600 79.200 M183.200 66.562 L 183.200 79.123 180.260 84.062 C 174.446 93.825,168.323 107.907,165.587 117.800 C 165.405 118.460,164.786 120.620,164.212 122.600 C 163.639 124.580,162.978 127.100,162.744 128.200 C 162.511 129.300,162.155 130.920,161.955 131.800 C 160.311 139.014,158.415 154.776,158.405 161.300 L 158.400 164.400 149.946 164.400 L 141.491 164.400 141.745 158.500 C 142.353 144.353,143.791 134.689,147.444 120.200 C 150.837 106.738,158.269 88.026,164.076 78.322 C 170.555 67.493,180.973 54.000,182.855 54.000 C 183.045 54.000,183.200 59.653,183.200 66.562 M236.440 56.300 C 239.000 58.958,241.931 62.454,244.235 65.600 C 245.122 66.810,246.344 68.480,246.952 69.311 C 250.022 73.508,260.400 92.668,260.400 94.139 C 260.400 94.287,260.744 95.172,261.164 96.104 C 263.825 102.013,268.246 115.570,270.000 123.200 C 272.542 134.261,274.129 144.933,274.854 155.836 C 275.488 165.377,276.421 164.400,266.673 164.400 L 258.521 164.400 258.042 157.100 C 257.336 146.343,256.586 141.093,253.970 128.600 C 251.040 114.605,242.701 93.754,235.733 83.000 L 233.400 79.400 233.283 67.232 C 233.137 52.067,232.959 52.685,236.440 56.300 M225.152 126.300 C 225.364 127.125,226.006 131.940,226.579 137.000 C 227.153 142.060,227.791 147.550,227.999 149.200 C 228.206 150.850,228.565 153.774,228.795 155.699 C 229.026 157.623,229.389 160.593,229.601 162.299 C 229.813 164.004,230.265 167.740,230.604 170.600 C 230.943 173.460,231.393 177.196,231.603 178.901 C 231.813 180.607,232.172 183.577,232.400 185.501 C 232.629 187.426,232.989 190.195,233.199 191.657 C 233.444 193.355,233.443 195.447,233.197 197.457 C 232.985 199.185,232.632 202.400,232.412 204.600 C 232.193 206.800,231.833 210.310,231.612 212.400 C 231.391 214.490,230.936 218.990,230.600 222.400 C 230.264 225.810,229.821 230.220,229.614 232.200 C 229.408 234.180,229.051 237.645,228.820 239.900 C 228.589 242.155,228.218 245.755,227.997 247.900 C 227.775 250.045,227.324 254.500,226.994 257.800 C 226.665 261.100,226.210 265.600,225.985 267.800 C 225.759 270.000,225.403 273.510,225.193 275.600 C 224.983 277.690,224.716 280.300,224.599 281.400 C 224.482 282.500,224.221 285.110,224.019 287.200 C 223.621 291.304,223.177 295.611,222.181 305.000 C 221.831 308.300,221.373 312.800,221.163 315.000 C 220.953 317.200,220.606 320.710,220.392 322.800 C 220.178 324.890,219.836 328.400,219.632 330.600 C 219.429 332.800,219.155 335.410,219.026 336.400 C 218.896 337.390,218.433 341.800,217.996 346.200 C 217.560 350.600,217.087 355.145,216.946 356.300 L 216.689 358.400 208.386 358.400 L 200.083 358.400 199.641 355.100 C 199.399 353.285,198.927 349.010,198.594 345.600 C 198.262 342.190,197.809 337.690,197.588 335.600 C 197.083 330.814,196.541 325.445,195.993 319.800 C 195.759 317.380,195.397 313.780,195.189 311.800 C 194.981 309.820,194.536 305.410,194.199 302.000 C 193.863 298.590,193.415 294.180,193.204 292.200 C 192.771 288.131,192.220 282.666,191.593 276.200 C 191.359 273.780,190.994 270.180,190.783 268.200 C 190.572 266.220,190.131 261.900,189.803 258.600 C 189.475 255.300,189.025 250.845,188.803 248.700 C 188.291 243.745,187.731 238.150,187.213 232.800 C 186.990 230.490,186.534 225.990,186.200 222.800 C 185.866 219.610,185.413 215.200,185.194 213.000 C 184.344 204.491,183.984 201.059,183.539 197.227 C 183.198 194.294,183.193 192.487,183.518 190.327 C 184.042 186.848,184.474 183.423,185.805 172.200 C 186.353 167.580,186.978 162.404,187.193 160.699 C 187.409 158.993,187.768 156.068,187.992 154.199 C 189.066 145.245,189.267 143.607,189.608 141.000 C 189.809 139.460,190.269 135.590,190.630 132.400 C 190.991 129.210,191.443 126.195,191.635 125.700 L 191.983 124.800 208.375 124.800 L 224.768 124.800 225.152 126.300 M200.183 150.500 C 200.078 150.775,200.039 160.090,200.096 171.200 L 200.200 191.400 207.948 191.509 C 213.325 191.584,215.866 191.478,216.248 191.160 C 217.259 190.321,217.045 150.959,216.026 150.414 C 214.848 149.784,200.428 149.862,200.183 150.500 M191.380 208.507 C 191.272 208.791,191.231 212.617,191.291 217.011 L 191.400 225.000 208.200 225.000 L 225.000 225.000 225.000 216.600 L 225.000 208.200 208.289 208.096 C 194.943 208.012,191.538 208.095,191.380 208.507 M224.600 216.600 L 224.600 224.600 208.300 224.704 L 192.000 224.809 192.000 216.871 C 192.000 212.505,192.122 208.811,192.271 208.662 C 192.420 208.513,199.755 208.438,208.571 208.496 L 224.600 208.600 224.600 216.600 M200.080 241.680 C 199.402 242.358,199.402 257.642,200.080 258.320 C 200.758 258.998,216.042 258.998,216.720 258.320 C 217.398 257.642,217.398 242.358,216.720 241.680 C 216.379 241.339,213.964 241.200,208.400 241.200 C 202.836 241.200,200.421 241.339,200.080 241.680 M216.386 242.374 C 217.007 243.534,216.931 256.868,216.299 257.733 C 215.850 258.346,214.979 258.407,207.999 258.309 L 200.200 258.200 200.091 250.412 C 200.031 246.128,200.070 242.393,200.179 242.112 C 200.547 241.151,215.864 241.399,216.386 242.374 M107.600 324.676 C 107.600 352.450,107.754 374.448,107.948 374.568 C 108.140 374.686,108.402 375.282,108.530 375.892 C 108.773 377.044,111.351 380.916,111.666 380.601 C 111.764 380.502,112.431 380.957,113.147 381.611 C 113.863 382.265,114.708 382.800,115.025 382.800 C 115.341 382.800,115.600 382.980,115.600 383.200 C 115.600 383.420,116.399 383.600,117.376 383.600 C 118.353 383.600,119.264 383.780,119.400 384.000 C 119.536 384.220,120.267 384.400,121.024 384.400 C 121.781 384.400,122.400 384.220,122.400 384.000 C 122.400 383.780,123.109 383.600,123.976 383.600 C 124.843 383.600,125.664 383.420,125.800 383.200 C 125.936 382.980,126.352 382.797,126.724 382.792 C 127.096 382.788,128.118 382.158,128.996 381.392 C 129.873 380.627,130.728 380.000,130.896 380.000 C 131.063 380.000,131.200 379.808,131.200 379.573 C 131.200 379.339,131.650 378.557,132.200 377.836 C 132.750 377.114,133.200 376.166,133.200 375.729 C 133.200 375.291,133.335 374.798,133.500 374.633 C 133.665 374.468,133.804 351.983,133.810 324.667 L 133.819 275.000 120.709 275.000 L 107.600 275.000 107.600 324.676 M295.593 275.100 L 282.986 275.211 282.993 325.172 C 282.997 352.651,283.135 375.268,283.300 375.433 C 283.465 375.598,283.600 376.063,283.600 376.467 C 283.600 376.870,283.780 377.200,284.000 377.200 C 284.220 377.200,284.400 377.425,284.400 377.700 C 284.400 378.885,288.841 382.800,290.186 382.800 C 290.524 382.800,290.800 382.980,290.800 383.200 C 290.800 383.420,291.610 383.600,292.600 383.600 C 293.590 383.600,294.400 383.743,294.400 383.918 C 294.400 384.399,297.102 384.482,297.394 384.011 C 297.533 383.785,298.447 383.600,299.424 383.600 C 300.401 383.600,301.200 383.420,301.200 383.200 C 301.200 382.980,301.494 382.800,301.854 382.800 C 302.214 382.800,302.893 382.385,303.363 381.878 C 303.833 381.371,304.529 380.836,304.909 380.690 C 305.289 380.544,305.600 380.220,305.600 379.970 C 305.600 379.720,306.050 379.161,306.600 378.729 C 307.150 378.296,307.600 377.606,307.600 377.195 C 307.600 376.784,307.780 376.336,308.000 376.200 C 308.220 376.064,308.400 375.524,308.400 375.000 C 308.400 374.476,308.580 373.936,308.800 373.800 C 309.444 373.402,309.344 274.773,308.700 274.894 C 308.425 274.946,302.527 275.038,295.593 275.100 " stroke="none" fill="#a7b8c1" fill-rule="evenodd"></path><path id="path1" d="M200.400 25.000 L 200.400 32.800 207.767 32.800 C 217.427 32.800,216.400 33.757,216.400 24.757 L 216.400 17.200 208.400 17.200 L 200.400 17.200 200.400 25.000 M200.400 79.200 L 200.400 107.600 208.400 107.600 L 216.400 107.600 216.400 79.200 L 216.400 50.800 208.400 50.800 L 200.400 50.800 200.400 79.200 M181.385 55.846 C 179.921 57.237,174.174 64.044,172.813 66.000 C 172.277 66.770,171.735 67.490,171.608 67.600 C 170.284 68.749,163.696 80.037,160.170 87.200 C 157.836 91.942,156.976 93.865,155.654 97.300 C 155.463 97.795,155.125 98.650,154.901 99.200 C 154.678 99.750,154.186 101.010,153.807 102.000 C 153.428 102.990,152.956 104.113,152.759 104.495 C 152.562 104.877,152.400 105.541,152.400 105.971 C 152.400 106.401,152.220 106.864,152.000 107.000 C 151.780 107.136,151.600 107.599,151.600 108.029 C 151.600 108.459,151.441 109.123,151.246 109.505 C 150.630 110.715,148.800 116.745,148.800 117.566 C 148.800 117.999,148.620 118.464,148.400 118.600 C 148.180 118.736,148.000 119.431,148.000 120.144 C 148.000 120.857,147.838 121.611,147.641 121.820 C 147.444 122.029,147.193 122.920,147.084 123.800 C 146.976 124.680,146.588 126.660,146.223 128.200 C 144.294 136.342,143.491 142.024,142.832 152.200 C 142.632 155.280,142.348 159.105,142.201 160.700 L 141.932 163.600 149.966 163.600 L 158.000 163.600 158.000 158.551 C 158.000 155.775,158.259 151.680,158.575 149.451 C 158.891 147.223,159.255 144.590,159.385 143.600 C 160.420 135.669,161.632 129.576,163.402 123.400 C 163.780 122.080,164.180 120.503,164.291 119.895 C 164.402 119.287,164.651 118.692,164.846 118.571 C 165.041 118.451,165.202 117.958,165.205 117.476 C 165.208 116.994,165.763 115.070,166.439 113.200 C 167.114 111.330,167.763 109.392,167.881 108.894 C 167.999 108.396,168.254 107.890,168.448 107.770 C 168.641 107.651,168.800 107.201,168.800 106.771 C 168.800 106.341,168.959 105.677,169.153 105.295 C 169.348 104.913,169.689 104.150,169.911 103.600 C 172.627 96.890,179.986 82.462,180.894 82.067 C 181.062 81.993,181.200 81.751,181.200 81.528 C 181.200 81.306,181.563 80.614,182.006 79.992 C 182.777 78.909,182.807 78.339,182.706 66.776 L 182.600 54.692 181.385 55.846 M234.009 67.100 C 234.003 75.172,234.142 79.600,234.400 79.600 C 234.620 79.600,234.800 79.778,234.800 79.996 C 234.800 80.214,235.569 81.609,236.508 83.096 C 237.448 84.583,238.660 86.700,239.203 87.800 C 239.745 88.900,240.282 89.890,240.395 90.000 C 240.894 90.487,244.966 99.265,246.887 104.000 C 247.111 104.550,247.452 105.313,247.647 105.695 C 247.841 106.077,248.000 106.741,248.000 107.171 C 248.000 107.601,248.159 108.051,248.352 108.170 C 248.546 108.290,248.801 108.796,248.919 109.294 C 249.037 109.792,249.686 111.730,250.361 113.600 C 251.037 115.470,251.592 117.394,251.595 117.876 C 251.598 118.358,251.780 118.864,252.000 119.000 C 252.220 119.136,252.400 119.747,252.400 120.357 C 252.400 120.967,252.529 121.595,252.686 121.753 C 253.428 122.494,255.658 132.534,256.784 140.200 C 257.937 148.044,258.788 156.309,258.794 159.700 L 258.800 163.600 266.590 163.600 L 274.380 163.600 274.166 156.500 C 274.048 152.595,273.854 149.040,273.736 148.600 C 273.618 148.160,273.364 146.270,273.173 144.400 C 272.568 138.484,272.093 135.653,270.369 127.700 C 268.800 120.465,268.225 118.234,266.422 112.400 C 265.709 110.090,264.962 107.887,264.762 107.505 C 264.563 107.123,264.400 106.484,264.400 106.085 C 264.400 105.686,264.257 105.189,264.082 104.980 C 263.907 104.771,263.526 103.880,263.236 103.000 C 262.945 102.120,262.440 100.770,262.113 100.000 C 261.287 98.054,260.746 96.738,260.387 95.800 C 259.829 94.339,258.716 91.829,257.551 89.406 C 256.918 88.089,256.400 86.784,256.400 86.506 C 256.400 86.228,256.220 86.000,256.000 86.000 C 255.780 86.000,255.600 85.676,255.600 85.280 C 255.600 84.884,255.437 84.389,255.238 84.180 C 255.039 83.971,254.260 82.630,253.507 81.200 C 251.735 77.838,251.055 76.647,250.765 76.400 C 250.636 76.290,250.013 75.300,249.380 74.200 C 248.747 73.100,248.088 72.140,247.915 72.067 C 247.742 71.993,247.600 71.777,247.600 71.586 C 247.600 71.274,244.152 66.091,243.617 65.600 C 243.498 65.490,242.682 64.500,241.804 63.400 C 239.771 60.851,238.277 59.131,235.909 56.612 L 234.017 54.600 234.009 67.100 M192.400 216.800 L 192.400 224.400 208.400 224.400 L 224.400 224.400 224.400 216.800 L 224.400 209.200 208.400 209.200 L 192.400 209.200 192.400 216.800 M200.400 250.000 L 200.400 258.017 208.100 257.909 L 215.800 257.800 215.800 250.000 L 215.800 242.200 208.100 242.091 L 200.400 241.983 200.400 250.000 M256.057 305.956 C 255.679 306.196,255.649 306.383,255.957 306.574 C 256.201 306.724,256.400 306.670,256.400 306.453 C 256.400 306.236,256.715 305.976,257.100 305.876 C 257.596 305.746,257.625 305.681,257.200 305.653 C 256.870 305.630,256.356 305.767,256.057 305.956 M255.613 360.291 C 255.089 360.882,255.103 360.923,255.746 360.676 C 256.142 360.524,256.541 360.400,256.633 360.400 C 256.725 360.400,256.800 360.220,256.800 360.000 C 256.800 359.412,256.281 359.539,255.613 360.291 M244.073 373.687 C 243.813 373.947,243.600 374.434,243.600 374.769 C 243.600 375.187,243.801 375.091,244.241 374.463 C 244.943 373.461,244.828 372.932,244.073 373.687 " stroke="none" fill="#6c949c" fill-rule="evenodd"></path><path id="path2" d="M191.635 125.700 C 191.443 126.195,190.991 129.210,190.630 132.400 C 190.269 135.590,189.809 139.460,189.608 141.000 C 189.267 143.607,189.066 145.245,187.992 154.199 C 187.768 156.068,187.409 158.993,187.193 160.699 C 186.978 162.404,186.353 167.580,185.805 172.200 C 184.474 183.423,184.042 186.848,183.518 190.327 C 183.193 192.487,183.198 194.294,183.539 197.227 C 183.984 201.059,184.344 204.491,185.194 213.000 C 185.413 215.200,185.866 219.610,186.200 222.800 C 186.534 225.990,186.990 230.490,187.213 232.800 C 187.731 238.150,188.291 243.745,188.803 248.700 C 189.025 250.845,189.475 255.300,189.803 258.600 C 190.131 261.900,190.572 266.220,190.783 268.200 C 190.994 270.180,191.359 273.780,191.593 276.200 C 192.220 282.666,192.771 288.131,193.204 292.200 C 193.415 294.180,193.863 298.590,194.199 302.000 C 194.536 305.410,194.981 309.820,195.189 311.800 C 195.397 313.780,195.759 317.380,195.993 319.800 C 196.541 325.445,197.083 330.814,197.588 335.600 C 197.809 337.690,198.262 342.190,198.594 345.600 C 198.927 349.010,199.399 353.285,199.641 355.100 L 200.083 358.400 208.386 358.400 L 216.689 358.400 216.946 356.300 C 217.087 355.145,217.560 350.600,217.996 346.200 C 218.433 341.800,218.896 337.390,219.026 336.400 C 219.155 335.410,219.429 332.800,219.632 330.600 C 219.836 328.400,220.178 324.890,220.392 322.800 C 220.606 320.710,220.953 317.200,221.163 315.000 C 221.373 312.800,221.831 308.300,222.181 305.000 C 223.177 295.611,223.621 291.304,224.019 287.200 C 224.221 285.110,224.482 282.500,224.599 281.400 C 224.716 280.300,224.983 277.690,225.193 275.600 C 225.403 273.510,225.759 270.000,225.985 267.800 C 226.210 265.600,226.665 261.100,226.994 257.800 C 227.324 254.500,227.775 250.045,227.997 247.900 C 228.218 245.755,228.589 242.155,228.820 239.900 C 229.051 237.645,229.408 234.180,229.614 232.200 C 229.821 230.220,230.264 225.810,230.600 222.400 C 230.936 218.990,231.391 214.490,231.612 212.400 C 231.833 210.310,232.193 206.800,232.412 204.600 C 232.632 202.400,232.985 199.185,233.197 197.457 C 233.443 195.447,233.444 193.355,233.199 191.657 C 232.989 190.195,232.629 187.426,232.400 185.501 C 232.172 183.577,231.813 180.607,231.603 178.901 C 231.393 177.196,230.943 173.460,230.604 170.600 C 230.265 167.740,229.813 164.004,229.601 162.299 C 229.389 160.593,229.026 157.623,228.795 155.699 C 228.565 153.774,228.206 150.850,227.999 149.200 C 227.791 147.550,227.153 142.060,226.579 137.000 C 226.006 131.940,225.364 127.125,225.152 126.300 L 224.768 124.800 208.375 124.800 L 191.983 124.800 191.635 125.700 M216.026 150.414 C 217.045 150.959,217.259 190.321,216.248 191.160 C 215.866 191.478,213.325 191.584,207.948 191.509 L 200.200 191.400 200.096 171.200 C 200.039 160.090,200.078 150.775,200.183 150.500 C 200.428 149.862,214.848 149.784,216.026 150.414 M225.000 216.600 L 225.000 225.000 208.200 225.000 L 191.400 225.000 191.291 217.011 C 191.231 212.617,191.272 208.791,191.380 208.507 C 191.538 208.095,194.943 208.012,208.289 208.096 L 225.000 208.200 225.000 216.600 M216.720 241.680 C 217.398 242.358,217.398 257.642,216.720 258.320 C 216.042 258.998,200.758 258.998,200.080 258.320 C 199.402 257.642,199.402 242.358,200.080 241.680 C 200.421 241.339,202.836 241.200,208.400 241.200 C 213.964 241.200,216.379 241.339,216.720 241.680 " stroke="none" fill="#cbdbdb" fill-rule="evenodd"></path><path id="path3" d="M120.000 257.600 C 120.000 257.820,119.010 258.000,117.800 258.000 C 116.590 258.000,115.600 258.180,115.600 258.400 C 115.600 258.620,115.139 258.800,114.576 258.800 C 113.996 258.800,113.660 258.973,113.800 259.200 C 113.936 259.420,113.812 259.601,113.524 259.602 C 113.059 259.604,111.612 260.877,109.808 262.871 C 109.473 263.241,109.200 263.736,109.200 263.971 C 109.200 264.207,109.020 264.400,108.800 264.400 C 108.580 264.400,108.400 264.940,108.400 265.600 C 108.400 266.260,108.220 266.800,108.000 266.800 C 107.760 266.800,107.600 268.397,107.600 270.792 C 107.600 275.712,106.117 275.254,121.600 275.112 L 133.800 275.000 133.914 270.900 C 133.987 268.268,133.880 266.800,133.614 266.800 C 133.386 266.800,133.200 266.260,133.200 265.600 C 133.200 264.940,133.020 264.400,132.800 264.400 C 132.580 264.400,132.399 264.175,132.398 263.900 C 132.397 263.625,131.599 262.590,130.625 261.600 C 128.179 259.113,127.752 258.800,126.817 258.800 C 126.368 258.800,126.000 258.620,126.000 258.400 C 126.000 258.180,125.010 258.000,123.800 258.000 C 122.590 258.000,121.600 257.820,121.600 257.600 C 121.600 257.380,121.240 257.200,120.800 257.200 C 120.360 257.200,120.000 257.380,120.000 257.600 M294.544 257.690 C 294.439 257.860,293.553 258.000,292.576 258.000 C 291.599 258.000,290.800 258.180,290.800 258.400 C 290.800 258.620,290.432 258.800,289.983 258.800 C 289.534 258.800,288.900 259.025,288.575 259.300 C 286.341 261.188,284.504 263.175,284.045 264.200 C 283.749 264.860,283.348 265.713,283.153 266.095 C 282.959 266.477,282.800 268.682,282.800 270.995 L 282.800 275.200 295.100 275.195 C 310.544 275.188,309.200 275.571,309.200 271.177 C 309.200 269.236,309.020 267.536,308.800 267.400 C 308.580 267.264,308.400 266.713,308.400 266.176 C 308.400 265.639,308.220 265.200,308.000 265.200 C 307.780 265.200,307.600 264.793,307.600 264.295 C 307.600 263.796,307.151 263.053,306.600 262.639 C 306.050 262.226,305.586 261.598,305.568 261.244 C 305.548 260.836,305.463 260.782,305.336 261.096 C 305.110 261.656,304.000 260.790,304.000 260.054 C 304.000 259.833,303.370 259.424,302.600 259.146 C 301.830 258.867,301.200 258.495,301.200 258.320 C 301.200 258.144,300.210 258.000,299.000 258.000 C 297.790 258.000,296.800 257.822,296.800 257.604 C 296.800 257.149,294.833 257.224,294.544 257.690 " stroke="none" fill="#fb5852" fill-rule="evenodd"></path><path id="path4" d="M200.092 25.100 L 200.200 33.400 208.400 33.400 L 216.600 33.400 216.708 25.100 L 216.816 16.800 208.400 16.800 L 199.984 16.800 200.092 25.100 M216.400 24.757 C 216.400 33.757,217.427 32.800,207.767 32.800 L 200.400 32.800 200.400 25.000 L 200.400 17.200 208.400 17.200 L 216.400 17.200 216.400 24.757 M200.097 79.092 L 200.200 108.200 208.400 108.200 L 216.600 108.200 216.600 79.200 L 216.600 50.200 208.297 50.092 L 199.995 49.984 200.097 79.092 M216.400 79.200 L 216.400 107.600 208.400 107.600 L 200.400 107.600 200.400 79.200 L 200.400 50.800 208.400 50.800 L 216.400 50.800 216.400 79.200 M179.353 57.300 C 174.382 62.496,169.646 69.011,164.076 78.322 C 160.018 85.102,154.341 98.160,150.770 108.925 C 145.355 125.248,142.500 140.930,141.745 158.500 L 141.491 164.400 149.946 164.400 L 158.400 164.400 158.405 161.300 C 158.415 154.776,160.311 139.014,161.955 131.800 C 162.155 130.920,162.511 129.300,162.744 128.200 C 162.978 127.100,163.639 124.580,164.212 122.600 C 164.786 120.620,165.405 118.460,165.587 117.800 C 168.323 107.907,174.446 93.825,180.260 84.062 L 183.200 79.123 183.200 66.562 C 183.200 59.653,183.045 54.000,182.855 54.000 C 182.665 54.000,181.089 55.485,179.353 57.300 M233.371 54.532 C 233.258 54.825,233.219 60.540,233.283 67.232 L 233.400 79.400 235.733 83.000 C 242.701 93.754,251.040 114.605,253.970 128.600 C 256.586 141.093,257.336 146.343,258.042 157.100 L 258.521 164.400 266.673 164.400 C 276.421 164.400,275.488 165.377,274.854 155.836 C 273.987 142.797,271.898 130.065,268.631 117.902 C 266.869 111.347,263.186 100.594,261.164 96.104 C 260.744 95.172,260.400 94.287,260.400 94.139 C 260.400 92.668,250.022 73.508,246.952 69.311 C 246.344 68.480,245.122 66.810,244.235 65.600 C 238.855 58.257,233.884 53.193,233.371 54.532 M182.006 79.992 C 181.563 80.614,181.200 81.306,181.200 81.528 C 181.200 81.751,181.062 81.993,180.894 82.067 C 179.986 82.462,172.627 96.890,169.911 103.600 C 169.689 104.150,169.348 104.913,169.153 105.295 C 168.959 105.677,168.800 106.341,168.800 106.771 C 168.800 107.201,168.641 107.651,168.448 107.770 C 168.254 107.890,167.999 108.396,167.881 108.894 C 167.763 109.392,167.114 111.330,166.439 113.200 C 165.763 115.070,165.208 116.994,165.205 117.476 C 165.202 117.958,165.041 118.451,164.846 118.571 C 164.651 118.692,164.402 119.287,164.291 119.895 C 164.180 120.503,163.780 122.080,163.402 123.400 C 161.632 129.576,160.420 135.669,159.385 143.600 C 159.255 144.590,158.891 147.223,158.575 149.451 C 158.259 151.680,158.000 155.775,158.000 158.551 L 158.000 163.600 149.966 163.600 L 141.932 163.600 142.201 160.700 C 142.348 159.105,142.632 155.280,142.832 152.200 C 143.491 142.024,144.294 136.342,146.223 128.200 C 146.588 126.660,146.976 124.680,147.084 123.800 C 147.193 122.920,147.444 122.029,147.641 121.820 C 147.838 121.611,148.000 120.857,148.000 120.144 C 148.000 119.431,148.180 118.736,148.400 118.600 C 148.620 118.464,148.800 117.999,148.800 117.566 C 148.800 116.745,150.630 110.715,151.246 109.505 C 151.441 109.123,151.600 108.459,151.600 108.029 C 151.600 107.599,151.780 107.136,152.000 107.000 C 152.220 106.864,152.400 106.401,152.400 105.971 C 152.400 105.541,152.562 104.877,152.759 104.495 C 152.956 104.113,153.428 102.990,153.807 102.000 C 154.186 101.010,154.678 99.750,154.901 99.200 C 155.125 98.650,155.463 97.795,155.654 97.300 C 158.577 89.707,163.707 79.719,168.546 72.200 C 170.103 69.780,171.481 67.710,171.608 67.600 C 171.735 67.490,172.277 66.770,172.813 66.000 C 174.174 64.044,179.921 57.237,181.385 55.846 L 182.600 54.692 182.706 66.776 C 182.807 78.339,182.777 78.909,182.006 79.992 M239.004 60.012 C 239.667 60.775,240.927 62.300,241.804 63.400 C 242.682 64.500,243.498 65.490,243.617 65.600 C 244.152 66.091,247.600 71.274,247.600 71.586 C 247.600 71.777,247.742 71.993,247.915 72.067 C 248.088 72.140,248.747 73.100,249.380 74.200 C 250.013 75.300,250.636 76.290,250.765 76.400 C 251.055 76.647,251.735 77.838,253.507 81.200 C 254.260 82.630,255.039 83.971,255.238 84.180 C 255.437 84.389,255.600 84.884,255.600 85.280 C 255.600 85.676,255.780 86.000,256.000 86.000 C 256.220 86.000,256.400 86.228,256.400 86.506 C 256.400 86.784,256.918 88.089,257.551 89.406 C 258.716 91.829,259.829 94.339,260.387 95.800 C 260.746 96.738,261.287 98.054,262.113 100.000 C 262.440 100.770,262.945 102.120,263.236 103.000 C 263.526 103.880,263.907 104.771,264.082 104.980 C 264.257 105.189,264.400 105.686,264.400 106.085 C 264.400 106.484,264.563 107.123,264.762 107.505 C 264.962 107.887,265.709 110.090,266.422 112.400 C 268.225 118.234,268.800 120.465,270.369 127.700 C 272.093 135.653,272.568 138.484,273.173 144.400 C 273.364 146.270,273.618 148.160,273.736 148.600 C 273.854 149.040,274.048 152.595,274.166 156.500 L 274.380 163.600 266.590 163.600 L 258.800 163.600 258.794 159.700 C 258.788 156.309,257.937 148.044,256.784 140.200 C 255.658 132.534,253.428 122.494,252.686 121.753 C 252.529 121.595,252.400 120.967,252.400 120.357 C 252.400 119.747,252.220 119.136,252.000 119.000 C 251.780 118.864,251.598 118.358,251.595 117.876 C 251.592 117.394,251.037 115.470,250.361 113.600 C 249.686 111.730,249.037 109.792,248.919 109.294 C 248.801 108.796,248.546 108.290,248.352 108.170 C 248.159 108.051,248.000 107.601,248.000 107.171 C 248.000 106.741,247.841 106.077,247.647 105.695 C 247.452 105.313,247.111 104.550,246.887 104.000 C 244.966 99.265,240.894 90.487,240.395 90.000 C 240.282 89.890,239.745 88.900,239.203 87.800 C 238.660 86.700,237.448 84.583,236.508 83.096 C 235.569 81.609,234.800 80.214,234.800 79.996 C 234.800 79.778,234.620 79.600,234.400 79.600 C 234.142 79.600,234.003 75.172,234.009 67.100 L 234.017 54.600 235.909 56.612 C 236.949 57.718,238.342 59.248,239.004 60.012 M192.271 208.662 C 192.122 208.811,192.000 212.505,192.000 216.871 L 192.000 224.809 208.300 224.704 L 224.600 224.600 224.600 216.600 L 224.600 208.600 208.571 208.496 C 199.755 208.438,192.420 208.513,192.271 208.662 M224.400 216.800 L 224.400 224.400 208.400 224.400 L 192.400 224.400 192.400 216.800 L 192.400 209.200 208.400 209.200 L 224.400 209.200 224.400 216.800 M200.179 242.112 C 200.070 242.393,200.031 246.128,200.091 250.412 L 200.200 258.200 207.999 258.309 C 214.979 258.407,215.850 258.346,216.299 257.733 C 216.931 256.868,217.007 243.534,216.386 242.374 C 215.864 241.399,200.547 241.151,200.179 242.112 M215.800 250.000 L 215.800 257.800 208.100 257.909 L 200.400 258.017 200.400 250.000 L 200.400 241.983 208.100 242.091 L 215.800 242.200 215.800 250.000 M133.824 301.883 C 133.534 302.636,133.541 345.139,133.830 346.216 C 133.951 346.665,134.713 347.336,135.525 347.707 C 136.336 348.078,137.954 348.925,139.120 349.590 C 140.286 350.256,141.501 350.800,141.820 350.800 C 142.139 350.800,142.400 350.980,142.400 351.200 C 142.400 351.420,142.850 351.600,143.400 351.600 C 143.950 351.600,144.400 351.760,144.400 351.957 C 144.400 352.153,144.850 352.426,145.400 352.564 C 145.950 352.702,146.400 352.992,146.400 353.208 C 146.400 353.423,146.652 353.600,146.959 353.600 C 147.267 353.600,148.545 354.140,149.800 354.800 C 151.055 355.460,152.333 356.000,152.641 356.000 C 152.948 356.000,153.200 356.177,153.200 356.392 C 153.200 356.608,153.650 356.898,154.200 357.036 C 154.750 357.174,155.200 357.447,155.200 357.643 C 155.200 357.840,155.650 358.000,156.200 358.000 C 156.750 358.000,157.201 358.135,157.203 358.300 C 157.207 358.672,159.155 359.600,159.933 359.600 C 160.248 359.600,160.797 359.934,161.153 360.343 C 161.509 360.751,162.250 361.225,162.800 361.395 C 163.350 361.566,164.278 362.041,164.862 362.452 C 165.446 362.864,166.311 363.200,166.785 363.200 C 167.272 363.200,167.537 363.378,167.394 363.610 C 167.255 363.835,167.289 363.994,167.470 363.963 C 168.893 363.715,169.600 364.062,169.600 365.005 C 169.600 365.558,169.762 366.323,169.959 366.705 C 170.480 367.715,172.133 373.093,172.133 373.780 C 172.133 374.102,172.373 374.458,172.667 374.570 C 172.960 374.683,173.200 375.220,173.200 375.764 C 173.200 376.308,173.380 376.864,173.600 377.000 C 173.820 377.136,174.000 377.766,174.000 378.400 C 174.000 379.034,174.180 379.664,174.400 379.800 C 174.620 379.936,174.800 380.677,174.800 381.447 C 174.800 382.279,174.962 382.747,175.200 382.600 C 175.420 382.464,175.600 382.717,175.600 383.163 C 175.600 383.921,176.736 386.756,177.217 387.200 C 177.762 387.703,178.719 390.211,178.508 390.584 C 178.378 390.813,178.403 390.883,178.564 390.739 C 178.724 390.595,179.608 391.315,180.528 392.339 C 183.187 395.299,184.963 396.800,185.805 396.800 C 186.132 396.800,186.400 396.980,186.400 397.200 C 186.400 397.420,186.760 397.600,187.200 397.600 C 187.658 397.600,188.000 397.867,188.000 398.224 C 188.000 398.567,188.148 398.756,188.329 398.644 C 188.509 398.532,189.184 398.747,189.829 399.120 C 191.356 400.007,225.186 400.174,226.060 399.300 C 226.335 399.025,226.890 398.800,227.293 398.800 C 227.695 398.800,228.129 398.530,228.255 398.200 C 228.382 397.870,228.916 397.600,229.443 397.600 C 229.969 397.600,230.400 397.420,230.400 397.200 C 230.400 396.980,230.644 396.800,230.942 396.800 C 231.239 396.800,231.948 396.369,232.517 395.842 C 233.085 395.315,233.652 394.985,233.775 395.109 C 233.899 395.232,234.000 395.111,234.000 394.839 C 234.000 394.566,234.903 393.522,236.006 392.518 C 237.109 391.514,238.119 390.267,238.249 389.746 C 238.380 389.226,238.647 388.800,238.843 388.800 C 239.040 388.800,239.200 388.350,239.200 387.800 C 239.200 387.250,239.377 386.800,239.592 386.800 C 239.808 386.800,240.098 386.350,240.236 385.800 C 240.374 385.250,240.647 384.800,240.843 384.800 C 241.040 384.800,241.200 384.159,241.200 383.376 C 241.200 382.593,241.343 382.041,241.517 382.149 C 241.691 382.256,241.876 381.797,241.927 381.128 C 241.978 380.459,242.195 379.583,242.410 379.182 C 242.624 378.781,242.800 377.991,242.800 377.426 C 242.800 376.862,242.980 376.400,243.200 376.400 C 243.420 376.400,243.600 375.882,243.600 375.249 C 243.600 374.616,243.870 373.874,244.200 373.600 C 244.530 373.326,244.800 372.689,244.800 372.184 C 244.800 371.680,244.974 371.207,245.187 371.133 C 245.400 371.060,245.620 370.401,245.675 369.670 C 245.730 368.938,245.915 368.252,246.087 368.146 C 246.259 368.040,246.400 367.524,246.400 367.000 C 246.400 366.476,246.580 365.936,246.800 365.800 C 247.020 365.664,247.200 365.203,247.200 364.776 C 247.200 364.275,247.475 364.000,247.976 364.000 C 248.403 364.000,248.864 363.820,249.000 363.600 C 249.136 363.380,249.597 363.200,250.024 363.200 C 250.451 363.200,250.800 363.020,250.800 362.800 C 250.800 362.580,251.160 362.400,251.600 362.400 C 252.040 362.400,252.400 362.220,252.400 362.000 C 252.400 361.780,252.535 361.636,252.700 361.679 C 253.246 361.823,254.800 361.153,254.800 360.773 C 254.800 360.568,255.070 360.400,255.400 360.400 C 255.730 360.400,256.000 360.220,256.000 360.000 C 256.000 359.780,256.450 359.600,257.000 359.600 C 257.550 359.600,258.000 359.420,258.000 359.200 C 258.000 358.980,258.235 358.800,258.521 358.800 C 258.976 358.800,261.821 357.459,263.600 356.407 C 263.930 356.211,264.785 355.816,265.500 355.528 C 266.215 355.240,266.800 354.869,266.800 354.702 C 266.800 354.536,267.160 354.400,267.600 354.400 C 268.040 354.400,268.400 354.220,268.400 354.000 C 268.400 353.780,268.850 353.600,269.400 353.600 C 269.950 353.600,270.400 353.455,270.400 353.277 C 270.400 352.923,273.188 351.600,273.934 351.600 C 274.190 351.600,274.400 351.464,274.400 351.298 C 274.400 351.131,274.985 350.757,275.700 350.465 C 278.183 349.452,281.401 347.824,281.533 347.513 C 281.607 347.341,281.899 347.200,282.183 347.200 C 283.106 347.200,283.200 345.000,283.194 323.450 C 283.187 301.278,283.184 301.227,281.588 301.253 C 279.592 301.285,277.984 301.651,278.212 302.020 C 278.351 302.244,277.460 302.400,276.047 302.400 C 274.727 302.400,273.536 302.580,273.400 302.800 C 273.264 303.020,272.389 303.200,271.456 303.200 C 270.523 303.200,269.589 303.362,269.380 303.559 C 269.171 303.756,268.280 304.019,267.400 304.143 C 262.828 304.787,261.362 305.047,260.987 305.282 C 260.760 305.424,259.690 305.644,258.610 305.771 C 257.530 305.898,256.546 306.147,256.423 306.325 C 256.300 306.502,255.301 306.698,254.201 306.760 C 253.102 306.822,252.112 307.004,252.001 307.164 C 251.891 307.324,250.810 307.501,249.600 307.558 C 248.390 307.614,247.229 307.826,247.020 308.030 C 246.811 308.233,245.992 308.400,245.200 308.400 C 244.408 308.400,243.518 308.625,243.221 308.900 C 242.784 309.306,242.741 309.287,242.996 308.800 C 243.168 308.470,242.808 308.680,242.196 309.268 C 241.464 309.970,240.960 310.996,240.723 312.268 C 240.525 313.330,240.201 315.010,240.002 316.000 C 239.804 316.990,239.463 318.700,239.246 319.800 C 239.028 320.900,238.365 324.050,237.772 326.800 C 236.546 332.489,236.104 334.638,235.631 337.200 C 235.448 338.190,234.804 341.340,234.199 344.200 C 233.595 347.060,232.942 350.165,232.750 351.100 C 232.557 352.035,232.239 353.565,232.042 354.500 C 231.712 356.065,231.040 359.931,229.985 366.333 C 228.510 375.287,224.284 380.582,216.800 382.854 C 214.358 383.595,202.036 383.599,199.800 382.860 C 191.146 379.997,188.000 375.376,186.012 362.600 C 185.567 359.740,185.039 356.590,184.839 355.600 C 184.638 354.610,184.283 352.810,184.049 351.600 C 183.815 350.390,183.343 348.140,183.001 346.600 C 182.658 345.060,182.104 342.360,181.770 340.600 C 181.435 338.840,181.003 336.770,180.811 336.000 C 180.618 335.230,180.252 333.520,179.997 332.200 C 179.743 330.880,179.380 329.080,179.190 328.200 C 178.454 324.789,177.650 320.898,177.207 318.600 C 176.952 317.280,176.576 315.549,176.372 314.754 C 176.167 313.958,175.994 312.878,175.986 312.354 C 175.951 310.002,173.922 308.400,170.978 308.400 C 170.026 308.400,169.136 308.220,169.000 308.000 C 168.864 307.780,167.874 307.600,166.800 307.600 C 165.726 307.600,164.736 307.420,164.600 307.200 C 164.464 306.980,163.463 306.800,162.376 306.800 C 161.289 306.800,160.400 306.657,160.400 306.481 C 160.400 306.169,156.580 305.316,153.400 304.918 C 152.520 304.808,151.629 304.556,151.420 304.359 C 151.211 304.162,150.176 304.000,149.120 304.000 C 148.064 304.000,147.200 303.820,147.200 303.600 C 147.200 303.380,146.221 303.200,145.024 303.200 C 143.827 303.200,142.736 303.020,142.600 302.800 C 142.464 302.580,141.541 302.400,140.548 302.400 C 139.497 302.400,138.498 302.155,138.158 301.815 C 137.380 301.037,134.129 301.088,133.824 301.883 " stroke="none" fill="#7e9ea8" fill-rule="evenodd"></path></g></svg>